/* XPM */
static char *bdec11936d06410cecf38082b9c01c93[] = {
/* columns rows colors chars-per-pixel */
"64 64 32 1 ",
"  c #0D53B4",
". c #0F56B8",
"X c #1056B7",
"o c #1057B8",
"O c #145ABC",
"+ c #175EC0",
"@ c #185FC1",
"# c #1B63C4",
"$ c #1E66C9",
"% c #1F68CA",
"& c #2067CA",
"* c #236ACD",
"= c #266ED1",
"- c #2770D3",
"; c #2A72D5",
": c #2D76D9",
"> c #2F78DB",
", c #317BDE",
"< c #347EE1",
"1 c #3681E4",
"2 c #3983E6",
"3 c #3C86E9",
"4 c #3E89EC",
"5 c #418BEE",
"6 c #448EF1",
"7 c #4691F4",
"8 c #4994F6",
"9 c #4D96F9",
"0 c #4F98F9",
"q c #539AF9",
"w c #589BF9",
"e c None",
/* pixels */
"eeeeeeeeeeeeeeeeeeeeeeeeeeeeeeeeeeeeeeeeeeeeeeeeeeeeeeeeeeeeeeee",
"eeeeeeeeeeeeeeeeeeeeeeeeeeeeeeeeeeeeeeeeeeeeeeeeeeeeeeeeeeeeeeee",
"eeeeeeeeeeeeeeeeeeeeeeeeeeeeeeeeeeeeeeeeeeeeeeeeeeeeeeeeeeeeeeee",
"eeeeeeeeeeeeeeeeeeeeeeeeeeeeeeeeeeeeeeeeeeeeeeeeeeeeeeeeeeeeeeee",
"eeeeeeeeeeeeeeeeeeeeeeeeeeeeeeeeeeeeeeeeeeeeeeeeeeeeeeeeeeeeeeee",
"eeeeeeeeeeeeeeeeeeeeeeeeeeeeeeeeeeeeeeeeeeeeeeeeeeeeeeeeeeeeeeee",
"eeeeeeeeeeeeeeeeeeeeeeeeeeeeeeeeeeeeeeeeeeeeeeeeeeeeeeeeeeeeeeee",
"eeeeeeeeeeeeeeeeeeeeeeeeeeeeeeeeeeeeeeeeeeeeeeeeeeeeeeeeeeeeeeee",
"eeeeeeweeeeeeeeeeeeeeeeeeeeeeeeeeeeeeeeeeeeeeeeeeeeeeeeeeeeeeeee",
"eeeewwwweeeeeeeeeeeeeeeeeeeeeeeeeeeeeeeeeeeeeeeeeeeeeeeeqqwweeee",
"eeewwwwwwweeeeeeeeeeeeeeeeeeeeeeeeeeeeeeeeeeeeeeeeeeeeewwqqqwqee",
"eewwwwwwwweeeeeeeeeeeeeeeeeeeeeeeeeeeeeeeeeeeeeeeeeeeeqqqqqwqwee",
"ewqwwwwwwwweeeeeeeeeeeeeeeeeeeeeeeeeeeeeeeeeeeeeeeeeeqqqqqqqqqqe",
"ewwwwwqwqqwqeeeeeeeeeeeeeeeeeeeeeeeeeeeeeeeeeeeeeeeeeqqqq0qqqqqe",
"ewqwwqwwwqqweeeeeeeeeeeeeeeeeeeeeeeeeeeeeeeeeeeeeeee0qq00qq000qq",
"wqwwqqqqqwqqqeeeeeeeeeeeeeeeeeeeeeeeeeeeeeeeeeeeeeeqq00000000009",
"eqqqqqqqqqqqqeeeeeeeeeeeeeeeeeeeeeeeeeeeeeeeeeeeeeeqq90999990999",
"eqqqqqqqqqqqqqeeeeeeeeeeeeeeeeeeeeeeeeeeeeeeeeeeee009q999999999e",
"eeqqqq0qq0qq0q0eeeeeeeeeeeeeeeeeeeeeeeeeeeeeeeeeee9988889989888e",
"eeqq00000000000eeeeeeeeeeeeeeeeeeeeeeeeeeeeeeeeee8888888887788ee",
"eeeq000000999999eeeeeeeeeeeeeeeeeeeeeeeeeeeeeeee8887888777777eee",
"eeeq099990999999eeeeeeeeeeeeeeeeeeeeeeeeeeeeeeee8777667777777eee",
"eeee9899889888888eeeeeeeeeeeeeeeeeeeeeeeeeeeeee7666676666555eeee",
"eeeee8888888888888eeeeeeeeeeeeeeeeeeeeeeeeeeeee6666666646566eeee",
"eeeee8878777777877eeeeeeeeeeeeeeeeeeeeeeeeeeee5546466646644eeeee",
"eeeeee7777777766767eeeeeeeeeeeeeeeeeeeeeeeeee65546444444444eeeee",
"eeeeee6766665756656eeeeeeeeeeeeeeeeeeeeeeeeee4444443334333eeeeee",
"eeeeeee6666655666465eeeeeeeeeeeeeeeeeeeeeeee3333333332222eeeeeee",
"eeeeeeee4446444544444eeeeeeeeeeeeeeeeeeeeeee2322222222222eeeeeee",
"eeeeeeee4444444434334eeeeeeeeeeeeeeeeeeeeee2121111111111eeeeeeee",
"eeeeeeeee3344333333332eeeeeeeeeeeeeeeeeeee111111<11<1,11eeeeeeee",
"eeeeeeeee3222322222222eeeeeeeeeeeeeeeeeeee<<<<<<,1,,,,,eeeeeeeee",
"eeeeeeeeee22122122<22<<eeeeeeeeeeeeeeeeee,,,,,,,,,,,,,eeeeeeeeee",
"eeeeeeeeeee<11<<<<<<<<<<eeeeeeeeeeeeeeeee,,,,,>>>:>>:>eeeeeeeeee",
"eeeeeeeeeee<<<<,,,,,,,<,eeeeeeeeeeeeeeee:::::::::>:;:eeeeeeeeeee",
"eeeeeeeeeeee,,,,,,,>,,>>>eeeeeeeeeeeeee::::::;:;;;;;;eeeeeeeeeee",
"eeeeeeeeeeee>>>>>>::::>>:eeeeeeeeeeeeee;;;;;;-;-;;;-eeeeeeeeeeee",
"eeeeeeeeeeeee:::::::::;;::eeeeeeeeeeee-;-=------===eeeeeeeeeeeee",
"eeeeeeeeeeeeee;:;:-:;;;-;;-eeeeeeeeeee---==-==*==**eeeeeeeeeeeee",
"eeeeeeeeeeeeee-;---=--=---=eeeeeeeeee*-*=*********eeeeeeeeeeeeee",
"eeeeeeeeeeeeeee======-=====*eeeeeeee*********$****eeeeeeeeeeeeee",
"eeeeeeeeeeeeeee-*==*********eeeeeeee***#$**#*&$$#eeeeeeeeeeeeeee",
"eeeeeeeeeeeeeeee**&****$*$$**eeeeee&*$$#$###&###eeeeeeeeeeeeeeee",
"eeeeeeeeeeeeeeee*&&&&#*#$$$$#$eeeee######$######eeeeeeeeeeeeeeee",
"eeeeeeeeeeeeeeeee&###*###$#$##eeee###########+#eeeeeeeeeeeeeeeee",
"eeeeeeeeeeeeeeeeee#############ee#@#@###@#@##++eeeeeeeeeeeeeeeee",
"eeeeeeeeeeeeeeeeee#######@#@@##+@#+#O#O@O#O@O+eeeeeeeeeeeeeeeeee",
"eeeeeeeeeeeeeeeeeee#O#O#+++@O++++OOOO+O+OOOOOOeeeeeeeeeeeeeeeeee",
"eeeeeeeeeeeeeeeeeeeO++OO+O+OOOOOOOOOOOOOOOOOOeeeeeeeeeeeeeeeeeee",
"eeeeeeeeeeeeeeeeeeeeOOOOOOOOOOOOOOOoOOoOOooOeeeeeeeeeeeeeeeeeeee",
"eeeeeeeeeeeeeeeeeeeeeOOOOOOOoOOooOoOoooo.XXoeeeeeeeeeeeeeeeeeeee",
"eeeeeeeeeeeeeeeeeeeeeOOoXooOoooo.oooXXo.XXXeeeeeeeeeeeeeeeeeeeee",
"eeeeeeeeeeeeeeeeeeeeeeXXXXX.XX.. .X    oX  eeeeeeeeeeeeeeeeeeeee",
"eeeeeeeeeeeeeeeeeeeeeeXX X XX    oX       eeeeeeeeeeeeeeeeeeeeee",
"eeeeeeeeeeeeeeeeeeeeeeeX X               eeeeeeeeeeeeeeeeeeeeeee",
"eeeeeeeeeeeeeeeeeeeeeeee                 eeeeeeeeeeeeeeeeeeeeeee",
"eeeeeeeeeeeeeeeeeeeeeeeee               eeeeeeeeeeeeeeeeeeeeeeee",
"eeeeeeeeeeeeeeeeeeeeeeeeee            eeeeeeeeeeeeeeeeeeeeeeeeee",
"eeeeeeeeeeeeeeeeeeeeeeeeeeee         eeeeeeeeeeeeeeeeeeeeeeeeeee",
"eeeeeeeeeeeeeeeeeeeeeeeeeeeeeee   eeeeeeeeeeeeeeeeeeeeeeeeeeeeee",
"eeeeeeeeeeeeeeeeeeeeeeeeeeeeeeeeeeeeeeeeeeeeeeeeeeeeeeeeeeeeeeee",
"eeeeeeeeeeeeeeeeeeeeeeeeeeeeeeeeeeeeeeeeeeeeeeeeeeeeeeeeeeeeeeee",
"eeeeeeeeeeeeeeeeeeeeeeeeeeeeeeeeeeeeeeeeeeeeeeeeeeeeeeeeeeeeeeee",
"eeeeeeeeeeeeeeeeeeeeeeeeeeeeeeeeeeeeeeeeeeeeeeeeeeeeeeeeeeeeeeee"
};
