/* XPM */
static char *d10c9e237607432a82e7e4ae4e9dc869[] = {
/* columns rows colors chars-per-pixel */
"32 32 171 2 ",
"   c #0B52B3",
".  c #0C52B3",
"X  c #0C52B4",
"o  c #0C53B4",
"O  c #0D53B4",
"+  c #0D53B5",
"@  c #0E54B6",
"#  c #0E55B6",
"$  c #0F55B6",
"%  c #0F55B7",
"&  c #0F56B6",
"*  c #0F56B8",
"=  c #1056B7",
"-  c #1056B8",
";  c #1057B8",
":  c #1157B8",
">  c #1157B9",
",  c #1158B9",
"<  c #1258BA",
"1  c #1359BA",
"2  c #1359BB",
"3  c #135ABB",
"4  c #145ABC",
"5  c #145BBC",
"6  c #145BBD",
"7  c #155BBD",
"8  c #155CBD",
"9  c #155CBE",
"0  c #155CBF",
"q  c #165CBE",
"w  c #165CBF",
"e  c #165DBF",
"r  c #175DBF",
"t  c #175EBF",
"y  c #175EC0",
"u  c #175FC1",
"i  c #185FC1",
"p  c #185FC2",
"a  c #1860C1",
"s  c #1960C1",
"d  c #1860C2",
"f  c #1960C3",
"g  c #1961C3",
"h  c #1962C3",
"j  c #1962C4",
"k  c #1A62C4",
"l  c #1B63C5",
"z  c #1C63C5",
"x  c #1B64C5",
"c  c #1B64C6",
"v  c #1C64C6",
"b  c #1D64C6",
"n  c #1C65C6",
"m  c #1D65C6",
"M  c #1D66C7",
"N  c #1D66C8",
"B  c #1F67C9",
"V  c #1F67CA",
"C  c #2068C9",
"Z  c #2068CA",
"A  c #2068CB",
"S  c #2168CB",
"D  c #2169CB",
"F  c #2169CC",
"G  c #2269CC",
"H  c #226ACC",
"J  c #246BCD",
"K  c #246BCE",
"L  c #246CCE",
"P  c #246CCF",
"I  c #246DCF",
"U  c #256DCF",
"Y  c #256DD0",
"T  c #266ED0",
"R  c #266FD1",
"E  c #2770D2",
"W  c #2870D3",
"Q  c #2871D3",
"!  c #2871D4",
"~  c #2972D4",
"^  c #2972D5",
"/  c #2A72D5",
"(  c #2B74D7",
")  c #2C75D7",
"_  c #2C75D8",
"`  c #2C75D9",
"'  c #2D76D9",
"]  c #2D76DA",
"[  c #2E77DA",
"{  c #2E78DB",
"}  c #3078DC",
"|  c #3079DC",
" . c #307ADC",
".. c #317ADD",
"X. c #317ADE",
"o. c #327BDE",
"O. c #327CDF",
"+. c #337DE0",
"@. c #337EE1",
"#. c #347EE1",
"$. c #357FE2",
"%. c #3580E2",
"&. c #3580E3",
"*. c #3780E3",
"=. c #3780E4",
"-. c #3681E4",
";. c #3781E4",
":. c #3882E5",
">. c #3982E6",
",. c #3983E6",
"<. c #3983E7",
"1. c #3A84E8",
"2. c #3A85E8",
"3. c #3B85E8",
"4. c #3B85E9",
"5. c #3A86E8",
"6. c #3B86E8",
"7. c #3B86E9",
"8. c #3C86EA",
"9. c #3C87EA",
"0. c #3D87EA",
"q. c #3C87EB",
"w. c #3D88EB",
"e. c #3E88EC",
"r. c #3E89EC",
"t. c #3F89ED",
"y. c #3F8AED",
"u. c #408AED",
"i. c #408BEE",
"p. c #418BEE",
"a. c #418CEF",
"s. c #428CEF",
"d. c #428DEF",
"f. c #428CF0",
"g. c #438DF0",
"h. c #438EF0",
"j. c #438EF1",
"k. c #448DF0",
"l. c #448EF0",
"z. c #448EF1",
"x. c #448FF1",
"c. c #448EF2",
"v. c #458EF2",
"b. c #4690F3",
"n. c #4690F4",
"m. c #4691F4",
"M. c #4791F4",
"N. c #4792F5",
"B. c #4892F5",
"V. c #4993F6",
"C. c #4994F6",
"Z. c #4A94F6",
"A. c #4A94F7",
"S. c #4A95F7",
"D. c #4B95F8",
"F. c #4C96F9",
"G. c #4D96F9",
"H. c #4D97F9",
"J. c #4E97F9",
"K. c #4F99F9",
"L. c #5099F9",
"P. c #509AF9",
"I. c #519AF9",
"U. c #529BF9",
"Y. c #539BF9",
"T. c #549BF9",
"R. c #559BF9",
"E. c #569BF9",
"W. c #579BF9",
"Q. c #589BF9",
"!. c None",
/* pixels */
"!.!.!.!.!.!.!.!.!.!.!.!.!.!.!.!.!.!.!.!.!.!.!.!.!.!.!.!.!.!.!.!.",
"!.!.!.!.!.!.!.!.!.!.!.!.!.!.!.!.!.!.!.!.!.!.!.!.!.!.!.!.!.!.!.!.",
"!.!.!.!.!.!.!.!.!.!.!.!.!.!.!.!.!.!.!.!.!.!.!.!.!.!.!.!.!.!.!.!.",
"!.!.!.!.!.!.!.!.!.!.!.!.!.!.!.!.!.!.!.!.!.!.!.!.!.!.!.!.!.!.!.!.",
"!.!.Q.Q.!.!.!.!.!.!.!.!.!.!.!.!.!.!.!.!.!.!.!.!.!.!.!.!.R.R.!.!.",
"!.Q.Q.Q.Q.!.!.!.!.!.!.!.!.!.!.!.!.!.!.!.!.!.!.!.!.!.!.T.R.R.R.!.",
"!.Q.Q.Q.Q.R.!.!.!.!.!.!.!.!.!.!.!.!.!.!.!.!.!.!.!.!.I.T.I.I.I.T.",
"R.R.R.R.R.R.!.!.!.!.!.!.!.!.!.!.!.!.!.!.!.!.!.!.!.!.I.I.I.I.K.I.",
"R.R.R.I.I.T.Y.!.!.!.!.!.!.!.!.!.!.!.!.!.!.!.!.!.!.K.K.J.J.D.J.D.",
"!.I.I.I.K.K.I.!.!.!.!.!.!.!.!.!.!.!.!.!.!.!.!.!.!.J.A.A.A.A.V.!.",
"!.!.K.J.J.J.J.J.!.!.!.!.!.!.!.!.!.!.!.!.!.!.!.!.V.M.b.b.M.c.b.!.",
"!.!.D.A.A.A.A.A.V.!.!.!.!.!.!.!.!.!.!.!.!.!.!.j.c.c.c.l.j.j.!.!.",
"!.!.!.M.M.M.b.b.b.!.!.!.!.!.!.!.!.!.!.!.!.!.!.d.d.y.e.d.e.!.!.!.",
"!.!.!.c.j.j.d.c.d.d.!.!.!.!.!.!.!.!.!.!.!.!.e.w.6.9.w.1.4.!.!.!.",
"!.!.!.!.e.u.u.e.e.w.!.!.!.!.!.!.!.!.!.!.!.!.,.,.,.,.1.-.!.!.!.!.",
"!.!.!.!.!.6.4.4.4.1.,.!.!.!.!.!.!.!.!.!.!.#.#.#.@.#.O.@.!.!.!.!.",
"!.!.!.!.!.,.,.*.-.#.-.#.!.!.!.!.!.!.!.!.X.X.X.X. . .{ !.!.!.!.!.",
"!.!.!.!.!.!.X.O.X.X.X.X.!.!.!.!.!.!.!.!.` ` ` ` ` ~ !.!.!.!.!.!.",
"!.!.!.!.!.!.X.`  .) ` ` ` !.!.!.!.!.!.~ ~ ~ ~ Q Q Q !.!.!.!.!.!.",
"!.!.!.!.!.!.!.~ ~ Q ~ Q Q !.!.!.!.!.!.T T T L L J !.!.!.!.!.!.!.",
"!.!.!.!.!.!.!.T L T L T L L !.!.!.!.H H A A V V A !.!.!.!.!.!.!.",
"!.!.!.!.!.!.!.!.H A A V V A N !.!.M N M M M M z !.!.!.!.!.!.!.!.",
"!.!.!.!.!.!.!.!.!.z M z k x x !.!.k k h p p h p !.!.!.!.!.!.!.!.",
"!.!.!.!.!.!.!.!.!.h p h y h y u y r r r q q q !.!.!.!.!.!.!.!.!.",
"!.!.!.!.!.!.!.!.!.!.r q 3 q r 3 3 q q 1 1 1 !.!.!.!.!.!.!.!.!.!.",
"!.!.!.!.!.!.!.!.!.!.3 3 3 - ; 3 - = = - - - !.!.!.!.!.!.!.!.!.!.",
"!.!.!.!.!.!.!.!.!.!.!.* @ @ @ @ @ @ + @ + !.!.!.!.!.!.!.!.!.!.!.",
"!.!.!.!.!.!.!.!.!.!.!.!.. @ O O . + + . !.!.!.!.!.!.!.!.!.!.!.!.",
"!.!.!.!.!.!.!.!.!.!.!.!.!.            !.!.!.!.!.!.!.!.!.!.!.!.!.",
"!.!.!.!.!.!.!.!.!.!.!.!.!.!.        !.!.!.!.!.!.!.!.!.!.!.!.!.!.",
"!.!.!.!.!.!.!.!.!.!.!.!.!.!.!.!.!.!.!.!.!.!.!.!.!.!.!.!.!.!.!.!.",
"!.!.!.!.!.!.!.!.!.!.!.!.!.!.!.!.!.!.!.!.!.!.!.!.!.!.!.!.!.!.!.!."
};
