/* XPM */
static char *ed21e0bc2cd741fad36076d414fca6ac[] = {
/* columns rows colors chars-per-pixel */
"32 32 255 2 ",
"   c #153E92",
".  c #1F3B90",
"X  c #183D91",
"o  c #193D91",
"O  c #193F92",
"+  c #26348B",
"@  c #26358C",
"#  c #253A8F",
"$  c #203B90",
"%  c #213D91",
"&  c #233C91",
"*  c #233D91",
"=  c #0F4194",
"-  c #0E4295",
";  c #0F4295",
":  c #0C4496",
">  c #074698",
",  c #084698",
"<  c #054A9A",
"1  c #024B9C",
"2  c #004D9D",
"3  c #024C9C",
"4  c #014E9E",
"5  c #004F9F",
"6  c #014F9F",
"7  c #034F9F",
"8  c #074D9E",
"9  c #0E4B9C",
"0  c #0E4D9E",
"q  c #104194",
"w  c #184195",
"e  c #114698",
"r  c #1F4798",
"t  c #11489A",
"y  c #1D4B9D",
"u  c #1E4D9C",
"i  c #1E4D9D",
"p  c #1E4E9D",
"a  c #1E519F",
"s  c #214294",
"d  c #214295",
"f  c #214395",
"g  c #204396",
"h  c #20509E",
"j  c #0050A0",
"k  c #0151A1",
"l  c #0053A2",
"z  c #0054A3",
"x  c #0554A3",
"c  c #0056A5",
"v  c #0057A5",
"b  c #0057A6",
"n  c #0953A3",
"m  c #0F50A1",
"M  c #0C53A3",
"N  c #0F54A3",
"B  c #0058A6",
"V  c #0059A7",
"C  c #0258A7",
"Z  c #005AA7",
"A  c #0159A8",
"S  c #005AA8",
"D  c #005CA9",
"F  c #005DAA",
"G  c #005DAB",
"H  c #005EAB",
"J  c #1452A2",
"K  c #1E52A0",
"L  c #1F53A1",
"P  c #1858A7",
"I  c #1559A8",
"U  c #1459A9",
"Y  c #2056A3",
"T  c #2057A4",
"R  c #2158A4",
"E  c #2159A6",
"W  c #215AA6",
"Q  c #225BA7",
"!  c #205CA8",
"~  c #215DA9",
"^  c #205FAA",
"/  c #0061AE",
"(  c #0062AE",
")  c #0062AF",
"_  c #0063AF",
"`  c #1661AD",
"'  c #1E60AB",
"]  c #1F60AB",
"[  c #1F61AC",
"{  c #1C62AD",
"}  c #1D62AD",
"|  c #1C63AD",
" . c #1965AF",
".. c #1A64AE",
"X. c #1866AF",
"o. c #1D64AE",
"O. c #0064B0",
"+. c #0065B1",
"@. c #0066B1",
"#. c #0066B2",
"$. c #0067B2",
"%. c #0067B3",
"&. c #0069B4",
"*. c #006AB5",
"=. c #006BB6",
"-. c #006CB7",
";. c #0969B5",
":. c #006DB8",
">. c #006EB8",
",. c #006EB9",
"<. c #006FB9",
"1. c #006FBA",
"2. c #1766B0",
"3. c #1767B0",
"4. c #1569B2",
"5. c #156AB3",
"6. c #146BB3",
"7. c #136BB4",
"8. c #146BB4",
"9. c #116DB5",
"0. c #136CB4",
"q. c #126CB5",
"w. c #126DB5",
"e. c #126DB7",
"r. c #116EB6",
"t. c #106FB6",
"y. c #116FB6",
"u. c #126EB6",
"i. c #0F70B7",
"p. c #0070BA",
"a. c #0071BB",
"s. c #0072BC",
"d. c #0073BD",
"f. c #0075BE",
"g. c #0075BF",
"h. c #0076BF",
"j. c #0776BD",
"k. c #0B73B9",
"l. c #0D71B8",
"z. c #0974BA",
"x. c #0974BB",
"c. c #0A74BA",
"v. c #0F74BB",
"b. c #0875BC",
"n. c #0C77BD",
"m. c #0579BF",
"M. c #0678BF",
"N. c #007EBE",
"B. c #0C78BE",
"V. c #1070B7",
"C. c #1170B7",
"Z. c #1174BC",
"A. c #1075BD",
"S. c #2060AB",
"D. c #0077C0",
"F. c #0079C2",
"G. c #007AC3",
"H. c #067AC0",
"J. c #077BC2",
"K. c #027CC1",
"L. c #027EC3",
"P. c #007CC5",
"I. c #007DC5",
"U. c #037DC5",
"Y. c #027EC4",
"T. c #007EC6",
"R. c #007FC7",
"E. c #0E79C0",
"W. c #0C79C2",
"Q. c #0C7BC2",
"!. c #0A7CC2",
"~. c #0B7CC2",
"^. c #097FC5",
"/. c #0B7EC5",
"(. c #0D7DC4",
"). c #0E7DC4",
"_. c #0081C6",
"`. c #0080C7",
"'. c #0580C6",
"]. c #0980C5",
"[. c #0880C6",
"{. c #0881C7",
"}. c #0080C8",
"|. c #0081C9",
" X c #0082C8",
".X c #0083C8",
"XX c #0082CA",
"oX c #0083CA",
"OX c #0083CB",
"+X c #0084C9",
"@X c #0084CB",
"#X c #0085CC",
"$X c #0085CD",
"%X c #0086CD",
"&X c #0087CE",
"*X c #0187CE",
"=X c #0982C8",
"-X c #0883C8",
";X c #0089CD",
":X c #0089CE",
">X c #0088CF",
",X c #0489CF",
"<X c #0089D0",
"1X c #0189D0",
"2X c #008AD0",
"3X c #008AD1",
"4X c #008BD2",
"5X c #008CD0",
"6X c #008CD1",
"7X c #008DD1",
"8X c #008CD2",
"9X c #008DD2",
"0X c #008CD3",
"qX c #018CD3",
"wX c #008DD3",
"eX c #008ED2",
"rX c #048CD1",
"tX c #008DD4",
"yX c #008ED4",
"uX c #008ED5",
"iX c #008FD5",
"pX c #008FD6",
"aX c #0091D5",
"sX c #0090D6",
"dX c #0090D7",
"fX c #0091D7",
"gX c #0092D6",
"hX c #0092D8",
"jX c #0093D9",
"kX c #0094D8",
"lX c #0094D9",
"zX c #0095D9",
"xX c #0094DA",
"cX c #0194DA",
"vX c #0095DA",
"bX c #0095DB",
"nX c #0096DA",
"mX c #0096DB",
"MX c #0097DB",
"NX c #0096DC",
"BX c #0097DC",
"VX c #0097DD",
"CX c #0098DC",
"ZX c #0098DD",
"AX c #0099DE",
"SX c #009ADE",
"DX c #009ADF",
"FX c #009BDF",
"GX c #009BE0",
"HX c #009CE0",
"JX c #009CE1",
"KX c #009DE1",
"LX c #009EE2",
"PX c #009FE3",
"IX c None",
/* pixels */
"IXIXIXIXIXIXIXIXIXIXIXIXIXIXIXIXIXIXIXIXIXIXIXIXIXIXIXIXIXIXIXIX",
"IXIXIXIXIXIXIXIXIXIXIXIXIX].!.!.!.Q.E.).IXIXIXIXIXIXIXIXIXIXIXIX",
"IXIXIXIXIXIXIXIXIXIX0Xm.C.i.i.i.C.t.6. .Q ` E.IXIXIXIXIXIXIXIXIX",
"IXIXIXIXIXIXIXIXCXFX0XK.B.!.].-X-X-X).Z.[ K * M *XIXIXIXIXIXIXIX",
"IXIXIXIXIXIXIXFXPXLXfXIXIXIXIXIXIXIXIXIXIXe.y   c f.IXIXIXIXIXIX",
"q l #.f.XX0XxXFXFXLXFX5XIXIXIXIXIXIXIXIXIXf 0 n z #.XXJ.[ i # @ ",
"IX4 ( s.XX1XhXFXLXLXLXeXIXIXIXIXIXIXIXIXE r X c =.( D.*XC.L f @ ",
"IX4 H <.R.1X0XxXFXLXLXgX_.IXIXIXIXIXIXX.~ i . l =.R.f.*X1X[ i IX",
"IXIXS =.R.rXIXIXIXIXIXxX+Xx.IXIXIXIXIX2.^ Y IXIXIXIX@XR.tXQ.~ IX",
"IXIXS #.f.R.IXIXIXIXIXCX;Xx.IXIXIXIXt.5.[ IXIXIXIXIXIX0X0XxXIXIX",
"IXIXIX#.s.R.IXIXIXIXIXIX0Xm.i.IXIXIXt.5.2.IXIXIXIXIXN.BX0XxXIXIX",
"IXIXIXIX<.R.*XIXIXIXIXIX0XR.i.IXIXC.t.t.IXIXIXIXIXIX@XxXxXhXFXIX",
"IXF.IXIX<.F.*XIXIXIXIXIXIXXXl.i.IXC.C.IXIXIXIXIXIX=.R.hXxXfXFXIX",
"IX#.s.IXIXD.XXtXIXIXIXIXIXIXx.i.l.t.C.IXIXIXIXIXIX#.F.1XIXtXFXIX",
"IX( ( IXIXD.XX1XIXIXIXIXIXIXj.i.l.t.IXIXIXIXIXIX; H f.IXIXtXxXFX",
"IX4 H IXIXIXR.>XfXIXIXIXIXIXIXC.t.l.IXIXIXIXIXf X c IXIXIX0XfXFX",
"IX, V IXIXIXIX*XfXxXIXIXIXIXIXi.C.IXIXIXIXIXIXi . 6 IXIXIX0XfXCX",
"IX; z IXIXIXIX*X0XxXIXIXIXIXIXIXIXIXIXIXIXIX~ K * IXIXIXIX1X0XxX",
"IXN 4 IXIXIXIXIX1XxXFXIXIXIXIXIXIXIXIXIXIXIX| T g IXIXIXIX@X>XCX",
"IXJ 1 w IXIXIXIX1XhXBXIXIXIXIXIXIXIXIXIXIX0. .E IXIXIXIXIXR.*XIX",
"IXU , e IXIXIXIXIXfXxXGXIXIXIXIXIXIXIXIXIXt. .] IXIXIXIXIXs.XXIX",
"IXIX; 8 IXIXIXIXIXfXxXFXIXIXIXIXIXIXIXIXe.8.5.IXIXIXIXIX=.=.XXIX",
"IXIXM 4 t IXIXIXIXIXxXFXGXIXIXIXIXIXIXt.l.t.IXIXIXIXIXIXS #.IXIX",
"IXIX;.1 x IXIXIXIXIXIXBXLXLXIXIXIXIXIXl.C.C.IXIXIXIXIX9 < =.IXIX",
"IXIXIXV V c IXIXIXIXIXFXFXLXIXIXIXIXi.i.C.IXIXIXIXIXX * : IXIXIX",
"IXIXIXIXS #.H IXIXIXIXIXFXLXLXIXIXIXi.i.i.IXIXIXIXIXa f U IXIXIX",
"IXIXIXIX<.( <.=.IXIXIXIXFXLXLXIXIXx.i.i.IXIXIXIXIX^ E P IXIXIXIX",
"IXIXIXIXIXf.<.F.F.IXIXIXIXGXLXLX>Xm.i.i.IXIXIX8.5...[ IXIXIXIXIX",
"IXIXIXIXIXIXXXF.XX*X1XIXIXFXFXPXfXK.C.IXIXl.t.t.t.Z.IXIXIXIXIXIX",
"IXIXIXIXIXIXIXIX*X>XfXxXFXFXPXPXgX+Xl.i.C.l.C.Z.].IXIXIXIXIXIXIX",
"IXIXIXIXIXIXIXIXIXIXfXxXFXFXPXPXgX+Xx.C.C.B.].IXIXIXIXIXIXIXIXIX",
"IXIXIXIXIXIXIXIXIXIXIXIXxXFXFXFXCX0X'.].IXIXIXIXIXIXIXIXIXIXIXIX"
};
