/* XPM */
static char *f28dc01de68842f4b56b05f252fd30c8[] = {
/* columns rows colors chars-per-pixel */
"16 16 61 1 ",
"  c #0B52B3",
". c #0D53B4",
"X c #0D53B5",
"o c #0D54B5",
"O c #0E54B5",
"+ c #1157B9",
"@ c #1258B9",
"# c #1259BA",
"$ c #1259BB",
"% c #1359BB",
"& c #145ABC",
"* c #175FC0",
"= c #175EC1",
"- c #185FC1",
"; c #1860C2",
": c #1A61C3",
"> c #1A62C3",
", c #1D64C6",
"< c #1E66C8",
"1 c #1F66C9",
"2 c #1F68CA",
"3 c #226ACC",
"4 c #226BCD",
"5 c #236BCE",
"6 c #266ED0",
"7 c #266ED1",
"8 c #266FD1",
"9 c #276FD2",
"0 c #2971D4",
"q c #2B74D6",
"w c #2B74D7",
"e c #2C76D9",
"r c #2D77DA",
"t c #2F78DB",
"y c #2F78DC",
"u c #337DE0",
"i c #347EE1",
"p c #357FE2",
"a c #3680E4",
"s c #3781E5",
"d c #3C87EA",
"f c #3D88EA",
"g c #3D88EB",
"h c #3E88EB",
"j c #3E89EC",
"k c #3F89EC",
"l c #438EF1",
"z c #458FF2",
"x c #4590F2",
"c c #4691F4",
"v c #4B95F8",
"b c #4B96F8",
"n c #4C96F8",
"m c #519AF9",
"M c #529AF9",
"N c #529BF9",
"B c #539BF9",
"V c #569BF9",
"C c #579BF9",
"Z c #589BF9",
"A c None",
/* pixels */
"AAAAAAAAAAAAAAAA",
"AAAAAAAAAAAAAAAA",
"AZAAAAAAAAAAAAVA",
"ZVVAAAAAAAAAABBB",
"BBBBAAAAAAAAbnbb",
"AnnvAAAAAAAAcxzA",
"AAzzlAAAAAAkkggA",
"AAggdAAAAAAsapAA",
"AAAppuAAAAyttAAA",
"AAAe0w0AA6886AAA",
"AAAA553AA21<AAAA",
"AAAA<::;--==AAAA",
"AAAAA&%%@@+AAAAA",
"AAAAAAooo.AAAAAA",
"AAAAAAA  AAAAAAA",
"AAAAAAAAAAAAAAAA"
};
