/* XPM */
static char *a5ccaa2c3be441679ae93da8d063d147[] = {
/* columns rows colors chars-per-pixel */
"64 64 64 1 ",
"  c #1D3A8F",
". c #153E92",
"X c #1A3C91",
"o c #26368C",
"O c #24398E",
"+ c #243E91",
"@ c #074697",
"# c #0B4395",
"$ c #054798",
"% c #014C9C",
"& c #0D4C9D",
"* c #104094",
"= c #1D4496",
"- c #124699",
"; c #124A9C",
": c #1D4B9B",
"> c #00509F",
", c #1E519F",
"< c #214295",
"1 c #224798",
"2 c #0054A3",
"3 c #0059A7",
"4 c #005CAA",
"5 c #1451A2",
"6 c #1D53A1",
"7 c #1D5BA7",
"8 c #135FAD",
"9 c #1E5DA8",
"0 c #2057A4",
"q c #225AA6",
"w c #225EA9",
"e c #0061AE",
"r c #0A61AF",
"t c #1462AE",
"y c #1C63AD",
"u c #0065B1",
"i c #006BB6",
"p c #006EB9",
"a c #1567B1",
"s c #1866B0",
"d c #136CB4",
"f c #196BB4",
"g c #0F70B7",
"h c #0173BD",
"j c #0C73BA",
"k c #0378BF",
"l c #0B78BF",
"z c #1170B7",
"x c #1273BB",
"c c #2161AC",
"v c #0077C0",
"b c #007CC4",
"n c #0A7CC2",
"m c #0181C6",
"M c #0981C7",
"N c #0084CB",
"B c #0883C9",
"V c #0089CE",
"C c #008CD3",
"Z c #0091D6",
"A c #0095DA",
"S c #0099DE",
"D c #009DE2",
"F c None",
/* pixels */
"FFFFFFFFFFFFFFFFFFFFFFFFFFFFFFFFFFFFFFFFFFFFFFFFFFFFFFFFFFFFFFFF",
"FFFFFFFFFFFFFFFFFFFFFFFFFFFFFBBBBBBnFFFFFFFFFFFFFFFFFFFFFFFFFFFF",
"FFFFFFFFFFFFFFFFFFFFFFFFnnnzgggzzzzddaxxxFFFFFFFFFFFFFFFFFFFFFFF",
"FFFFFFFFFFFFFFFFFFFFFCmjggggggggzzzddayyw0tdFFFFFFFFFFFFFFFFFFFF",
"FFFFFFFFFFFFFFFFFFFACNkjggggggggzzzzdasyw00=:dFFFFFFFFFFFFFFFFFF",
"FFFFFFFFFFFFFFFFFDDSZNmjggggjnnnnnnlxaayc06:<o-uFFFFFFFFFFFFFFFF",
"FFFFFFFFFFFFFFFSDDDAZVmklnBFFFFFFFFFFFMxfw6:=o.%4mFFFFFFFFFFFFFF",
"FFFFFFFFFFFFFFSDDDDDZCCFFFFFFFFFFFFFFFFFFFf61O $2evFFFFFFFFFFFFF",
"FFFFFFFFFFFFFADDDDDDAFFFFFFFFFFFFFFFFFFFFFFFt<O#24ivFFFFFFFFFFFF",
"F@>3iivvbVCZADSDDDDDDSFFFFFFFFFFFFFFFFFFFFFO.35*%2upbVkzyq:1+ooo",
"F#>34ihvmVVZZAADDDDDDSCVFFFFFFFFFFFFFFFFF61+X$3r22uivmbjaw6:+ooo",
"F#%34ipvbVVCZAADDDDDDSZVFFFFFFFFFFFFFFFFF6:+O@2ei34ihbVbzyq:<OoF",
"FF%24uhvbNVCZAASDDDDDDZVmFFFFFFFFFFFFFFFw0,<o#24ihuuhvmClaw01<oF",
"FFF24uivbbVCZAASDDDDDDACNFFFFFFFFFFFFFFyc0,=o*%4ihbipvNCCgyw,=FF",
"FFF23eihbSAbnFFFFFFFFDACNkFFFFFFFFFFFFFsc00=FFFFFFFFhvbVZVac0:FF",
"FFFF34ihvZDmFFFFFFFFFDSZNmjFFFFFFFFFFFsscw0:FFFFFFFFFvbVCAny0FFF",
"FFFF24ipvbSFFFFFFFFFFFDAVmjFFFFFFFFFFFfayw0FFFFFFFFFFFbNCZAzFFFF",
"FFFFF4upvbbFFFFFFFFFFFAACmkgFFFFFFFFFzdaswFFFFFFFFFFFFCNVZABFFFF",
"FFFFF4eihvbFFFFFFFFFFFFAZmkjFFFFFFFFFzaascFFFFFFFFFFFFACVZASFFFF",
"FFFFFFeivvNNFFFFFFFFFFFFZNkjgFFFFFFFzzzasFFFFFFFFFFFFZAANZZSFFFF",
"FFFFFFFuhvbVFFFFFFFFFFFFZVmjgFFFFFFzzddasFFFFFFFFFFFFZASCCAADFFF",
"FFFFFFFuivvbVFFFFFFFFFFFFCmjggFFFFFzzzddFFFFFFFFFFFFbCZSSCZADFFF",
"FFFFFFFFivbbVFFFFFFFFFFFFCNkgggFFFgzzdzFFFFFFFFFFFFvbVZSDVZADDFF",
"FFFvFFFFihbbNCFFFFFFFFFFFFNvjggFFFggzzzFFFFFFFFFFFFhbVZAFCZAADFF",
"FFF4vFFFFpvmNCZFFFFFFFFFFFFbjjggFgggzzFFFFFFFFFFFFupvVCAFFCZADFF",
"FFp3iFFFFFvbbNCFFFFFFFFFFFFmjgggggggzzFFFFFFFFFFFF4ivbCFFFCZADFF",
"FFi2evFFFFhbNCVZFFFFFFFFFFFFkgggggggzFFFFFFFFFFFF24ivbCFFFZZASDF",
"FFe24iFFFFFvbbCZFFFFFFFFFFFFkjgggggggFFFFFFFFFFF.%3ihbFFFFZCADDF",
"FF324eFFFFFvbVVCAFFFFFFFFFFFFjggggggFFFFFFFFFFFFX$2upvFFFFZCAADF",
"FF223eFFFFFFbNVCZFFFFFFFFFFFFjgggggFFFFFFFFFFFF+O@2eiFFFFFCCZADF",
"FF@>3eFFFFFFbNVCZAFFFFFFFFFFFFzggggFFFFFFFFFFFF<o#>4FFFFFFFVZASF",
"FF#%2eFFFFFFFbVVZZAFFFFFFFFFFFFgggFFFFFFFFFFFF,1O.%3FFFFFFFVZASF",
"FF.%24FFFFFFFFNVCZAFFFFFFFFFFFFjggFFFFFFFFFFFF0:O %FFFFFFFFVCAAF",
"FF.%23FFFFFFFFNVCZAAFFFFFFFFFFFFgFFFFFFFFFFFFw0:+O#FFFFFFFFVCZAF",
"FF-#%3FFFFFFFFFVCZAAFFFFFFFFFFFFFFFFFFFFFFFFyw0:<OFFFFFFFFCmVAAF",
"FF5#%2FFFFFFFFFVCCAASFFFFFFFFFFFFFFFFFFFFFFFyc0,<OFFFFFFFFVbVZAF",
"FF6#%2-FFFFFFFFFVCZAADFFFFFFFFFFFFFFFFFFFFFsyc00:FFFFFFFFFVbNCAF",
"FF5.$2;FFFFFFFFFVCZAASFFFFFFFFFFFFFFFFFFFFFaacq0FFFFFFFFFFbbNCAF",
"FFt.@2&FFFFFFFFFFZZZADSFFFFFFFFFFFFFFFFFFFddayw0FFFFFFFFFFvbbCFF",
"FFFO#%2FFFFFFFFFFFZZAADFFFFFFFFFFFFFFFFFFFzdaywFFFFFFFFFFFpvmVFF",
"FFF:#%2XFFFFFFFFFFZZASSDFFFFFFFFFFFFFFFFFzddasyFFFFFFFFFFhihbCFF",
"FFF5.%2&FFFFFFFFFFFZAASDFFFFFFFFFFFFFFFFzzzdasFFFFFFFFFFFiuhbCFF",
"FFFFX$22FFFFFFFFFFFAAASSDFFFFFFFFFFFFFFFzgzdzFFFFFFFFFFFp4upvFFF",
"FFFF5#%2;FFFFFFFFFFFZASSDDFFFFFFFFFFFFFgzgddaFFFFFFFFFFF43upmFFF",
"FFFF8#%24FFFFFFFFFFFFSSSDDFFFFFFFFFFFFFgzzzdFFFFFFFFFFFu%24pVFFF",
"FFFFF&%24&FFFFFFFFFFFAASDDDFFFFFFFFFFFgggzzzFFFFFFFFFFF;@24hFFFF",
"FFFFFr@%34%FFFFFFFFFFFASDDDFFFFFFFFFFFgggzzFFFFFFFFFFF&O#23bFFFF",
"FFFFFF2%3e4FFFFFFFFFFFASDDDDFFFFFFFFFggggzzFFFFFFFFFFF=o*%uFFFFF",
"FFFFFFi%2eu3FFFFFFFFFFFSDDDDFFFFFFFFgggggxFFFFFFFFFFF=<O.%FFFFFF",
"FFFFFFFe24ei4FFFFFFFFFFDSDDDDFFFFFFFgggggFFFFFFFFFFF1,<+ rFFFFFF",
"FFFFFFFF33uipeFFFFFFFFFFSSDDDDFFFFFggggggFFFFFFFFFF0q,:+:FFFFFFF",
"FFFFFFFFF3euphiFFFFFFFFFFSDDDDFFFFFgggggFFFFFFFFFF9wq,::FFFFFFFF",
"FFFFFFFFFF4uihvhFFFFFFFFFDDDDDDFFFkgggggFFFFFFFFFyyyq06FFFFFFFFF",
"FFFFFFFFFFhuihbbbFFFFFFFFFDDDDDFFNvjgggFFFFFFFFaaasyq9FFFFFFFFFF",
"FFFFFFFFFFFbihvbNbbFFFFFFFDDDDDDFNmjgggFFFFFFFddzasycFFFFFFFFFFF",
"FFFFFFFFFFFFFhhbbVCVVFFFFFFDDDDDACmjggFFFFFFzzzddaafFFFFFFFFFFFF",
"FFFFFFFFFFFFFFbvmVVCCZZFFFFDDDDDACmkgdFFFFggzzzzddlFFFFFFFFFFFFF",
"FFFFFFFFFFFFFFFNbmVCZZAASDDDDDDDAZVbggzjgggggzzzxnFFFFFFFFFFFFFF",
"FFFFFFFFFFFFFFFFFVVCCZASSSDDDDDDSZVkjgzggggggzxnFFFFFFFFFFFFFFFF",
"FFFFFFFFFFFFFFFFFFFCCZAASSDDDDDDACVkjggggggzjnFFFFFFFFFFFFFFFFFF",
"FFFFFFFFFFFFFFFFFFFFFAAASSDDDDDDACNmkzggxjjMFFFFFFFFFFFFFFFFFFFF",
"FFFFFFFFFFFFFFFFFFFFFFFFASSSDDDDSZCmkgjlnFFFFFFFFFFFFFFFFFFFFFFF",
"FFFFFFFFFFFFFFFFFFFFFFFFFFFFSSDDSZZZVFFFFFFFFFFFFFFFFFFFFFFFFFFF",
"FFFFFFFFFFFFFFFFFFFFFFFFFFFFFFFFFFFFFFFFFFFFFFFFFFFFFFFFFFFFFFFF"
};
