/* XPM */
static char *ed993194cb6e4a6bb7365b1624862550[] = {
/* columns rows colors chars-per-pixel */
"16 16 104 2 ",
"   c #193E92",
".  c #0B4799",
"X  c #074B9C",
"o  c #084E9F",
"O  c #1A4093",
"+  c #1F4396",
"@  c #174B9D",
"#  c #1F4A9A",
"$  c #214396",
"%  c #214798",
"&  c #0555A3",
"*  c #0055A4",
"=  c #0155A4",
"-  c #0158A6",
";  c #0D58A6",
":  c #005BA9",
">  c #075AA8",
",  c #015DAA",
"<  c #005EAB",
"1  c #1654A3",
"2  c #1E53A1",
"3  c #2053A1",
"4  c #0160AD",
"5  c #0063AF",
"6  c #1E60AB",
"7  c #1C63AD",
"8  c #006AB5",
"9  c #006CB7",
"0  c #0C68B4",
"q  c #006FB9",
"w  c #006FBA",
"e  c #1563B0",
"r  c #1767B1",
"t  c #1966B0",
"y  c #1768B1",
"u  c #146AB3",
"i  c #146BB3",
"p  c #116EB6",
"a  c #106FB7",
"s  c #1A68B2",
"d  c #116FB8",
"f  c #0F70B7",
"g  c #0071BB",
"h  c #0075BE",
"j  c #0076BF",
"k  c #0974BB",
"l  c #0B74BB",
"z  c #0877BE",
"x  c #0E76BD",
"c  c #1070B7",
"v  c #0079C2",
"b  c #007BC3",
"n  c #077AC0",
"m  c #067BC1",
"M  c #007BC4",
"N  c #007CC4",
"B  c #007DC4",
"V  c #007DC6",
"C  c #0879C0",
"Z  c #0B7AC0",
"A  c #0C7BC2",
"S  c #0A7CC2",
"D  c #0B7CC2",
"F  c #0981C7",
"G  c #0080C8",
"H  c #0083CA",
"J  c #0481C8",
"K  c #0481C9",
"L  c #0384C9",
"P  c #0485CB",
"I  c #0086CD",
"U  c #0882C8",
"Y  c #0883C9",
"T  c #0A84CB",
"R  c #0088CF",
"E  c #008BCF",
"W  c #0089D0",
"Q  c #008AD0",
"!  c #008CD3",
"~  c #008DD3",
"^  c #0090D4",
"/  c #0091D5",
"(  c #0090D6",
")  c #0091D7",
"_  c #0092D7",
"`  c #0093D7",
"'  c #0092D8",
"]  c #0093D9",
"[  c #0094DA",
"{  c #0095DA",
"}  c #0095DB",
"|  c #0096DB",
" . c #0098DC",
".. c #0098DD",
"X. c #0099DD",
"o. c #0099DE",
"O. c #009ADE",
"+. c #009ADF",
"@. c #009BDF",
"#. c #009BE0",
"$. c #009CE0",
"%. c #009DE1",
"&. c #009EE2",
"*. c None",
/* pixels */
"*.*.*.*.*.*.*.*.Y F *.*.*.*.*.*.",
"*.*.*.*.*.` C C A A s e K *.*.*.",
"*.: M ( #.O.*.*.*.*.*.1 o B d $ ",
"*.= j ! O.&.E *.*.*.6 $ , j P 2 ",
"*.= w K *.*.^ k *.*.t *.*.*.Q T ",
"*.*.8 G *.*.( z *.a u *.*.G | | ",
"*.B *.B *.*.*.m f c *.*.*.g ( ' ",
"*., *.b ! *.*.*.f f *.*.O 5 *.( ",
"*.X *.*.Q | *.*.f *.*.*.% *.*.! ",
"*.> *.*.I | *.*.*.*.*.t 3 *.*.I ",
"*.;   *.*.' O.*.*.*.c u *.*.*.b ",
"*.0 . *.*.*.O.*.*.*.c a *.*.& j ",
"*.*.4 : *.*.O.&.*.c f *.*.% @ *.",
"*.*.*.8 g *.*.&.O.k f *.u 7 *.*.",
"*.*.*.*.G Q | @.O.z f c x *.*.*.",
"*.*.*.*.*.*.| @.O.L D Y *.*.*.*."
};
