/* XPM */
static char *d77c93cab6a04e7db0f5459b3baf6df1[] = {
/* columns rows colors chars-per-pixel */
"128 128 74 1 ",
"  c #1E3A8F",
". c #153E92",
"X c #1A3C91",
"o c #26368C",
"O c #24398E",
"+ c #243D91",
"@ c #064597",
"# c #0B4395",
"$ c #034798",
"% c #0E4699",
"& c #004C9C",
"* c #0D4D9D",
"= c #114194",
"- c #1F4597",
"; c #124699",
": c #1E4798",
"> c #144A9C",
", c #1D4B9B",
"< c #00509F",
"1 c #1D509F",
"2 c #214294",
"3 c #21479A",
"4 c #1C4FA0",
"5 c #0054A3",
"6 c #0C55A4",
"7 c #0059A7",
"8 c #0A58A7",
"9 c #005CAA",
"0 c #085CAA",
"q c #1353A3",
"w c #1E54A2",
"e c #1459A7",
"r c #1C59A6",
"t c #155DAA",
"y c #1B5CA9",
"u c #2057A4",
"i c #215AA6",
"p c #235EA9",
"a c #0061AE",
"s c #0960AD",
"d c #1562AE",
"f c #1B63AD",
"g c #0065B1",
"h c #006AB5",
"j c #0E6AB6",
"k c #006EB9",
"l c #0E6EBA",
"z c #1666B0",
"x c #1A67B1",
"c c #136CB4",
"v c #1A6AB4",
"b c #116EBA",
"n c #0F70B7",
"m c #0174BD",
"M c #0D74BB",
"N c #0478BF",
"B c #0C78BF",
"V c #1170B7",
"C c #1272BA",
"Z c #2060AB",
"A c #0077C0",
"S c #007CC4",
"D c #0B7BC2",
"F c #0081C6",
"G c #0980C6",
"H c #0084CB",
"J c #0983C9",
"K c #0189CE",
"L c #008CD3",
"P c #0091D6",
"I c #0095DA",
"U c #0099DE",
"Y c #009DE2",
"T c None",
/* pixels */
"TTTTTTTTTTTTTTTTTTTTTTTTTTTTTTTTTTTTTTTTTTTTTTTTTTTTTTTTTTTTTTTTTTTTTTTTTTTTTTTTTTTTTTTTTTTTTTTTTTTTTTTTTTTTTTTTTTTTTTTTTTTTTTTT",
"TTTTTTTTTTTTTTTTTTTTTTTTTTTTTTTTTTTTTTTTTTTTTTTTTTTTTTTTTTTTTTTTTTTTTTTTTTTTTTTTTTTTTTTTTTTTTTTTTTTTTTTTTTTTTTTTTTTTTTTTTTTTTTTT",
"TTTTTTTTTTTTTTTTTTTTTTTTTTTTTTTTTTTTTTTTTTTTTTTTTTTTTTTTTTTTTTTTTTTTTTTTTTTTTTTTTTTTTTTTTTTTTTTTTTTTTTTTTTTTTTTTTTTTTTTTTTTTTTTT",
"TTTTTTTTTTTTTTTTTTTTTTTTTTTTTTTTTTTTTTTTTTTTTTTTTTTTTTTILKKJJGBDBBBBJJGLKPITTTTTTTTTTTTTTTTTTTTTTTTTTTTTTTTTTTTTTTTTTTTTTTTTTTTT",
"TTTTTTTTTTTTTTTTTTTTTTTTTTTTTTTTTTTTTTTTTTTTTTTTTTPKJGBnnnnnnnnVCCnccncccvvBDJLITTTTTTTTTTTTTTTTTTTTTTTTTTTTTTTTTTTTTTTTTTTTTTTT",
"TTTTTTTTTTTTTTTTTTTTTTTTTTTTTTTTTTTTTTTTTTTTTTTLKBVnCnnnnnnnnnnnCCVVncccczczxfZxCDPTTTTTTTTTTTTTTTTTTTTTTTTTTTTTTTTTTTTTTTTTTTTT",
"TTTTTTTTTTTTTTTTTTTTTTTTTTTTTTTTTTTTTTTTTTTTPFMnVVnnnnnnnnnnnnnVvVVccVcccczzxxZZpiryDKTTTTTTTTTTTTTTTTTTTTTTTTTTTTTTTTTTTTTTTTTT",
"TTTTTTTTTTTTTTTTTTTTTTTTTTTTTTTTTTTTTTTTTUPHFNMVVVnnnnnnnnnnnnnnVVVVVcccccczxxfZppuuu1dBUTTTTTTTTTTTTTTTTTTTTTTTTTTTTTTTTTTTTTTT",
"TTTTTTTTTTTTTTTTTTTTTTTTTTTTTTTTTTTTTTTIPKKFSNMnnnnnnnnnnnnnVnnnVVVVcVcVccvczzffppiu11,-3bLTTTTTTTTTTTTTTTTTTTTTTTTTTTTTTTTTTTTT",
"TTTTTTTTTTTTTTTTTTTTTTTTTTTTTTTTTTTTTYIILKKFFNmnnnnnnnnnnnnnVVnnVVVVVcVcczczzzfZZpii11::2O+jPTTTTTTTTTTTTTTTTTTTTTTTTTTTTTTTTTTT",
"TTTTTTTTTTTTTTTTTTTTTTTTTTTTTTTTTTTYYYUIPLKFFNNnnnnnnnVVVVnnVVnnVVCvVVCccczzzzzfpppuu1,:2+oO;hPTTTTTTTTTTTTTTTTTTTTTTTTTTTTTTTTT",
"TTTTTTTTTTTTTTTTTTTTTTTTTTTTTTTTTYYYYYUIPLKKFSNMnnnnnnnMBJJLKKIIIPILKKJJGBVzzzzZpppiu1,32+ooX#5AUTTTTTTTTTTTTTTTTTTTTTTTTTTTTTTT",
"TTTTTTTTTTTTTTTTTTTTTTTTTTTTTTTTYYYYYYUIPLKKHSNMnnVDJKITTTTTTTTTTTTTTTTTTTIPJGVfZZppww,:3+ooX=$<sLTTTTTTTTTTTTTTTTTTTTTTTTTTTTTT",
"TTTTTTTTTTTTTTTTTTTTTTTTTTTTTTIUYYYYYYUIPPKKFSNNGKITTTTTTTTTTTTTTTTTTTTTTTTTTTTPJvppu11,3++oX=$&57AITTTTTTTTTTTTTTTTTTTTTTTTTTTT",
"TTTTTTTTTTTTTTTTTTTTTTTTTTTTTIYYYYYYYYUUPPKKHKLUTTTTTTTTTTTTTTTTTTTTTTTTTTTTTTTTTTPDvw1,32+oo.@&<79kPTTTTTTTTTTTTTTTTTTTTTTTTTTT",
"TTTTTTTTTTTTTTTTTTTTTTTTTTTIUYYYYYYYYYUUPPPPITTTTTTTTTTTTTTTTTTTTTTTTTTTTTTTTTTTTTTTTKc,:3+oo.#&<779hHTTTTTTTTTTTTTTTTTTTTTTTTTT",
"TTTTTTTTTTTTTTTTTTTTTTTTTTIUYYYYYYYYYYYYUUITTTTTTTTTTTTTTTTTTTTTTTTTTTTTTTTTTTTTTTTTTTTKC,+oo #$<599hhSUTTTTTTTTTTTTTTTTTTTTTTTT",
"TTTTTTTTTTTTTTTTTTTTTTTTTUUYYUYYYYYYYYYYITTTTTTTTTTTTTTTTTTTTTTTTTTTTTTTTTTTTTTTTTTTTTTTTKt+O =$&579ahkAITTTTTTTTTTTTTTTTTTTTTTT",
"TTTTTTTTTTTTTTTTTTTTTTTTIUUUUYYYYYYYYYYTTTTTTTTTTTTTTTTTTTTTTTTTTTTTTTTTTTTTTTTTTTTTTTTTTTTJ4O.@&<79ahhmSPTTTTTTTTTTTTTTTTTTTTTT",
"T.#$<579ahhkAASSSHHKKLPPIIIUUUUUYYYYYYYYYUUUITTTTTTTTTTTTTTTTTTTTTTTTTTTTTTTTTTTTTTTtw+oX=$<hj;#&<59ahhANSPFNNMcxfpi1,,2+ooooooo",
"TT=$&5799hhhkASSHHHKKLPPIIIIIUUUYYYYYYYYYYUPLLKTTTTTTTTTTTTTTTTTTTTTTTTTTTTTTTTTTTTw,2+oO=$<79A8&<57aghkmASPSAMncfpiu,,22+oooooo",
"TT=$&<59aahhkmASSSHKKKLLPIIIUUUUYYYYYYYYYYUIPLKKTTTTTTTTTTTTTTTTTTTTTTTTTTTTTTTTTTr1,32oo.$&59aAh&57aahhmAAHPSBlczZpu1,:2+oooooT",
"TTT$&&599ahhkAASSSHHKKLPPIIIIUUUYYYYYYYYYYYIPLKFTTTTTTTTTTTTTTTTTTTTTTTTTTTTTTTTTTu1,32oo.#&579gmS779ahkAASSHPSMVcfZpw,,22oooooT",
"TTT#&&599aghkkmSSHHKKLLPPPIIUUUUYYYYYYYYYYYUPPKKKTTTTTTTTTTTTTTTTTTTTTTTTTTTTTTTTZu11,2+oX=$<79ahmSa9ahhkAAHHKPAnczypuw,32+oooTT",
"TTTT$&579agkkkAASSSHKKLPLIIIIIUYYYYYYYYYYYYUPPLKFTTTTTTTTTTTTTTTTTTTTTTTTTTTTTTTxpiw1,2+oO=$<77ahkAShaghkAASHKLPmnczZiu133++ooTT",
"TTTTT<<57aggkkmASSKHHKKLLPPIIIUIYYYYYYYYYYUUIPKKHFTTTTTTTTTTTTTTTTTTTTTTTTTTTTTTZpuu1,:+oo=$$59ahhmAHAahkmASHHKLLnczfpu1,3-+OTTT",
"TTTTT$<77aggkkmASSHKKKLLPPIIIYIYYYYYYYYYYYYUIPLKFFTTTTTTTTTTTTTTTTTTTTTTTTTTTTTvZpiu1,:2ooX#<579ghmASLAhkmASSHKLPGVvzpiu1,32TTTT",
"TTTTTT&579aghkmASSSSHKKLLIPIIIIUYYYYYYYYYYYUUPLKKFSTTTTTTTTTTTTTTTTTTTTTTTTTTTTfZZiw1,, +oX#$<7aahkASSKAhmAAHHKKLIBVzZpi11:2TTTT",
"TTTTTT<579agkkkASIIUIPHBDSTTTTTTTTTTTTTTTYYYIILKKFSSTTTTTTTTTTTTTTTTTTTTTTTTTTvfZZiuw1,-TTTTTTTTTTTTTTTUNkNASHHLLPPCcziiu1,TTTTT",
"TTTTTTT559aggkkASSYYYIFMDTTTTTTTTTTTTTTTTTYYUILLKFSNTTTTTTTTTTTTTTTTTTTTTTTTTDzffZpuw1,wTTTTTTTTTTTTTTTTPAmASHHHPPPLVzfpuw1TTTTT",
"TTTTTTT5599ggkkASSIYYIHllTTTTTTTTTTTTTTTTTYYUIPLKFFNBTTTTTTTTTTTTTTTTTTTTTTTTvzzfZpiu11TTTTTTTTTTTTTTTTTTPAASHHLLPPIDvzZiuTTTTTT",
"TTTTTTTT579agkkkASSYYUKDTTTTTTTTTTTTTTTTTTTYUUPLKHFNmTTTTTTTTTTTTTTTTTTTTTTTCvczfppiu1fTTTTTTTTTTTTTTTTTTTPASSHHKPIIPVxfpiTTTTTT",
"TTTTTTTTT79aghkmmAAIYYDTTTTTTTTTTTTTTTTTTTTTYIIPKKFNNMTTTTTTTTTTTTTTTTTTTTTTvczzzZppurTTTTTTTTTTTTTTTTTTTTTKSSSLLLIIUDbxZTTTTTTT",
"TTTTTTTTT799ghkkAASSYDTTTTTTTTTTTTTTTTTTTTTTYUILKKFFNnGTTTTTTTTTTTTTTTTTTTTCczxzffpiiTTTTTTTTTTTTTTTTTTTTTTUHSSKLLLIIUBvTTTTTTTT",
"TTTTTTTTTT9aggkkAASSLvTTTTTTTTTTTTTTTTTTTTTTTUIPLKFFNMnTTTTTTTTTTTTTTTTTTTTVcczzzfZpfTTTTTTTTTTTTTTTTTTTTTTTISSKKKLIIUPbTTTTTTTT",
"TTTTTTTTTT59agkkAASSSTTTTTTTTTTTTTTTTTTTTTTTTIIPLKFFNMnNTTTTTTTTTTTTTTTTTTCcczczzZZpTTTTTTTTTTTTTTTTTTTTTTTTIISKSLLIIIUTTTTTTTTT",
"TTTTTTTTTTT9aghkmAASSKTTTTTTTTTTTTTTTTTTTTTTTTIILKKFNmnMTTTTTTTTTTTTTTTTTBVcccxzzfZvTTTTTTTTTTTTTTTTTTTTTTTTIILSLLLPIIUITTTTTTTT",
"TTTTTTTTTTT6aghkkAAASKTTTTTTTTTTTTTTTTTTTTTTTTTIPLKFSNnnBTTTTTTTTTTTTTTTTCVcczczzffTTTTTTTTTTTTTTTTTTTTTTTTUIYISSLLPIIUUTTTTTTTT",
"TTTTTTTTTTTT0ggkmmASSSKTTTTTTTTTTTTTTTTTTTTTTTTIPLKFSNnnMTTTTTTTTTTTTTTTBcVccczcvfCTTTTTTTTTTTTTTTTTTTTTTTTPIYYLLLLPIIUYYTTTTTTT",
"TTTTTTTTTTTTTgghkAASSKSKTTTTTTTTTTTTTTTTTTTTTTTTPLKFFNMnVBTTTTTTTTTTTTTTnnccccczzvTTTTTTTTTTTTTTTTTTTTTTTTIPIIYISPLLPIUUYTTTTTTT",
"TTTTTTTTTTTTT0ghkkASSSKLTTTTTTTTTTTTTTTTTTTTTTTTPPKFFNmnnnDTTTTTTTTTTTTBVjVccczccTTTTTTTTTTTTTTTTTTTTTTTTLLPIIIUISLLIIUUYTTTTTTT",
"TTTTTTTTTTTTTTghkkAASSSSLTTTTTTTTTTTTTTTTTTTTTTTTPLKFFNnnVMTTTTTTTTTTTTVnncVcccccTTTTTTTTTTTTTTTTTTTTTTTTLKLIIUYUKKLLIIUYYTTTTTT",
"TTTTTTTTTTTTTT0hkkmASSSKKTTTTTTTTTTTTTTTTTTTTTTTTPLKFNNMnnnDTTTTTTTTTTCVVccVccczTTTTTTTTTTTTTTTTTTTTTTTTHHKLPIUYYPKLPIIUUUTTTTTT",
"TTTTTTTTTTTTTTTgkkmASSSLHLTTTTTTTTTTTTTTTTTTTTTTTTLKKFNMnnnnTTTTTTTTTBVVVnnccccBTTTTTTTTTTTTTTTTTTTTTTTTSHKLIIIUYUKLLIIUYYUTTTTT",
"TTTTTTTTTTTTTTTskkmASSSKHKLTTTTTTTTTTTTTTTTTTTTTTTTKHFNMnnnnMTTTTTTTTMVVVVcnccVTTTTTTTTTTTTTTTTTTTTTTTTSSHLLPIIUYYKLPPIIUYYTTTTT",
"TTTTTTTTTTTTTTTTmkkASSSSHKLTTTTTTTTTTTTTTTTTTTTTTTTPKFSmnnnnVTTTTTTTDnnVVVncVcBTTTTTTTTTTTTTTTTTTTTTTTTASHSLLPIUUYPKLLIIUUYTTTTT",
"TTTTTTKTTTTTTTTTTkkmSSSKHHKLTTTTTTTTTTTTTTTTTTTTTTTTKFSNMnnnnBTTTTTTnnnVVVVcVCTTTTTTTTTTTTTTTTTTTTTTTTAASSKLLIIIYTIKLPIIUYYITTTT",
"TTTTTTkHTTTTTTTTTmkmSSSSHKKLTTTTTTTTTTTTTTTTTTTTTTTTLFSNMnnnnVBTTTTMnnnnVVVVVTTTTTTTTTTTTTTTTTTTTTTTTAkASSKKLIIIUTTLLPIIIUYYTTTT",
"TTTTTI9gITTTTTTTTTkNNASSSLLLLTTTTTTTTTTTTTTTTTTTTTTTTHSSmVVnnnMTTTDMnnnnVVVnMTTTTTTTTTTTTTTTTTTTTTTTTahmSSSKLLIITTTILLIIIUYUTTTT",
"TTTTTH79ATTTTTTTTTAkmASHSLLLITTTTTTTTTTTTTTTTTTTTTTTTLFSmnnnnnnBTTMnnnnnVVVnTTTTTTTTTTTTTTTTTTTTTTTTmghmSSSKKPITTTTILLIIIUUYTTTT",
"TTTTTN79gPTTTTTTTTTNAAAHLSLSLPTTTTTTTTTTTTTTTTTTTTTTTTHSNnnnnnnnTBVnnnnnVVVBTTTTTTTTTTTTTTTTTTTTTTTTaghmSSHKKLITTTTTLLLPIUUYYTTT",
"TTTTTh799NTTTTTTTTTSAAASSSLLKLITTTTTTTTTTTTTTTTTTTTTTTTFNMnnnnnnBnnnnnnnVVVTTTTTTTTTTTTTTTTTTTTTTTTa7ghkASSHKLTTTTTTLLLIIUYYYTTT",
"TTTTT9779aKTTTTTTTTTAAASLSLPLLITTTTTTTTTTTTTTTTTTTTTTTTHNMnnnnnnnnnnnnnnVVDTTTTTTTTTTTTTTTTTTTTTTTT77ggkmASSKLTTTTTTILLIIIIYUTTT",
"TTTTP5579akTTTTTTTTTTAASSSLSKLLPTTTTTTTTTTTTTTTTTTTTTTTTSmnnnnnnnnnnnnnnVBTTTTTTTTTTTTTTTTTTTTTTTT757gghkSSSKTTTTTTTILLPIIYYYTTT",
"TTTTS<579aaHTTTTTTTTTSASLSSLLLLPTTTTTTTTTTTTTTTTTTTTTTTTFNnnnnnnVnnnnnnnnTTTTTTTTTTTTTTTTTTTTTTTT6&&79ghmASSTTTTTTTTIKLPIIUYYTTT",
"TTTTA<579aakPTTTTTTTTTASSSSLSKLPPTTTTTTTTTTTTTTTTTTTTTTTTNMnnnnnnnnnnnnnDTTTTTTTTTTTTTTTTTTTTTTTT%&<59ghkASLTTTTTTTTTPLPIIIYYYTT",
"TTTTk<<59aggKTTTTTTTTTSSSSKHLLLLPTTTTTTTTTTTTTTTTTTTTTTTTHMnnnnnnnnnnnVMTTTTTTTTTTTTTTTTTTTTTTTTq.@&59ahkAATTTTTTTTTTLLLIIIUYUTT",
"TTTTg&<779agHTTTTTTTTTTSSHHHSLLPPITTTTTTTTTTTTTTTTTTTTTTTTNnnnnnnnnnnnVBTTTTTTTTTTTTTTTTTTTTTTTTO.@&579ghmSTTTTTTTTTTPKLPIUUYUTT",
"TTTT9&<579agPTTTTTTTTTTTSHSKKLLLPPITTTTTTTTTTTTTTTTTTTTTTTTnnnnnnnnnnnMTTTTTTTTTTTTTTTTTTTTTTTT3oX#&<7aghATTTTTTTTTTTIKLPIIUYYTT",
"TTTT7$<5799gPTTTTTTTTTTTSSSHLSLLPPITTTTTTTTTTTTTTTTTTTTTTTTBnnnnnnnnnnTTTTTTTTTTTTTTTTTTTTTTTTT+oO=&<79ahATTTTTTTTTTTPKLLIIUUYTT",
"TTTT0$<<59aaPTTTTTTTTTTTTSHHKKLLLPPITTTTTTTTTTTTTTTTTTTTTTTTMVnnnnnnnBTTTTTTTTTTTTTTTTTTTTTTTT,+o .$<59akTTTTTTTTTTTTIHLPPIIUUTT",
"TTTP#$&<57agTTTTTTTTTTTTTKSHKKLLLPPITTTTTTTTTTTTTTTTTTTTTTTTBnnnnnnnnTTTTTTTTTTTTTTTTTTTTTTTTe:+Oo.@&57aTTTTTTTTTTTTTPKLLIIIUUTT",
"TTTP#$$<579hTTTTTTTTTTTTTTHHSKKKLPPIITTTTTTTTTTTTTTTTTTTTTTTTMVnnnnnDTTTTTTTTTTTTTTTTTTTTTTTTw,+Oo.#&<7hTTTTTTTTTTTTTIHKLPIIIYTT",
"TTTP=$&<579kTTTTTTTTTTTTTTHSKKKLLPPIITTTTTTTTTTTTTTTTTTTTTTTTTnnnnVMTTTTTTTTTTTTTTTTTTTTTTTTy1:2+o =&<9TTTTTTTTTTTTTTIHKLPIIYYTT",
"TTTP.#&&579hTTTTTTTTTTTTTTTHSKKKLPLIIITTTTTTTTTTTTTTTTTTTTTTTTMnnnnBTTTTTTTTTTTTTTTTTTTTTTTTw1:2+oO=$<aTTTTTTTTTTTTTTPHLLPPIIUTT",
"TTTP.#$&<57hTTTTTTTTTTTTTTTTHHKLLLLIIUITTTTTTTTTTTTTTTTTTTTTTTTnnnMTTTTTTTTTTTTTTTTTTTTTTTTfu1,:2oo=$5TTTTTTTTTTTTTTTPHHLLPIUUTT",
"TTTP.=$&<59hTTTTTTTTTTTTTTTTKHLKLLPIIIUTTTTTTTTTTTTTTTTTTTTTTTTDnVTTTTTTTTTTTTTTTTTTTTTTTTCiu1,:2ooX#9TTTTTTTTTTTTTTTIHHHLPIUITT",
"TTTTq=@&<579jTTTTTTTTTTTTTTTTHHHLLLPIIIITTTTTTTTTTTTTTTTTTTTTTTTMBTTTTTTTTTTTTTTTTTTTTTTTTZpuw,:2+o *TTTTTTTTTTTTTTTTPHHLLPIIUTT",
"TTTTq.@&&5794TTTTTTTTTTTTTTTTKHLLLPPIIIUTTTTTTTTTTTTTTTTTTTTTTTTDTTTTTTTTTTTTTTTTTTTTTTTTvppuw1,3+oOTTTTTTTTTTTTTTTTTPHHKLPPIITT",
"TTTT4.#&&<57dTTTTTTTTTTTTTTTTTHLLLLPPIIIITTTTTTTTTTTTTTTTTTTTTTTTTTTTTTTTTTTTTTTTTTTTTTTTxZpuu1,-2o:TTTTTTTTTTTTTTTTTPSHHKLIIUTT",
"TTTTsX=$&<57dTTTTTTTTTTTTTTTTTLHKLLPPIIUUITTTTTTTTTTTTTTTTTTTTTTTTTTTTTTTTTTTTTTTTTTTTTTvfZpiu1,:++TTTTTTTTTTTTTTTTTTLSHKKLPIITT",
"TTTTd.=@&<57eTTTTTTTTTTTTTTTTTTLKLLLPIIIIYTTTTTTTTTTTTTTTTTTTTTTTTTTTTTTTTTTTTTTTTTTTTTTxfZpiu11:-wTTTTTTTTTTTTTTTTTTHSHHKLIIUTT",
"TTTTM .@&&<78TTTTTTTTTTTTTTTTTTTKLLLIIIIIUUTTTTTTTTTTTTTTTTTTTTTTTTTTTTTTTTTTTTTTTTTTTTVzffppuw1,,TTTTTTTTTTTTTTTTTTTSSSHKLLIUTT",
"TTTTM .#&&558TTTTTTTTTTTTTTTTTTTLLLPPIIIIUUTTTTTTTTTTTTTTTTTTTTTTTTTTTTTTTTTTTTTTTTTTTCzzzZppuu1:dTTTTTTTTTTTTTTTTTTUSSSHKLPPTTT",
"TTTTIo.=$&<50TTTTTTTTTTTTTTTTTTTTLLLPPPIUUIYTTTTTTTTTTTTTTTTTTTTTTTTTTTTTTTTTTTTTTTTTTcczffZpuw1rTTTTTTTTTTTTTTTTTTTIASSSKLLITTT",
"TTTTT-.=@&<59qTTTTTTTTTTTTTTTTTTTPLLLPIIIIUYTTTTTTTTTTTTTTTTTTTTTTTTTTTTTTTTTTTTTTTTTBvcxzfZpii1TTTTTTTTTTTTTTTTTTTTKASSHKKLITTT",
"TTTTTq .#&&57eTTTTTTTTTTTTTTTTTTTTLLPPIIIIYIUTTTTTTTTTTTTTTTTTTTTTTTTTTTTTTTTTTTTTTTTcccxzffpiixTTTTTTTTTTTTTTTTTTTTSmASSHKLITTT",
"TTTTTc .#&&57qTTTTTTTTTTTTTTTTTTTTPPLPPPIIIYUUTTTTTTTTTTTTTTTTTTTTTTTTTTTTTTTTTTTTTTMccvzzffppyTTTTTTTTTTTTTTTTTTTTTSmASSHHLITTT",
"TTTTTDO.#$&<50TTTTTTTTTTTTTTTTTTTTTILPIIIYIYYUTTTTTTTTTTTTTTTTTTTTTTTTTTTTTTTTTTTTTTccczzxffZpvTTTTTTTTTTTTTTTTTTTTIkmASSKKLTTTT",
"TTTTTI X#@&<59qTTTTTTTTTTTTTTTTTTTTTLPLIIIIIUYUTTTTTTTTTTTTTTTTTTTTTTTTTTTTTTTTTTTTnnvcczzzfZZTTTTTTTTTTTTTTTTTTTTTHgkASSHHPTTTT",
"TTTTTTrX=@&<57tTTTTTTTTTTTTTTTTTTTTTPPPIIIUUUUYTTTTTTTTTTTTTTTTTTTTTTTTTTTTTTTTTTTBVcccczzzzZTTTTTTTTTTTTTTTTTTTTTTAhhAASSHPTTTT",
"TTTTTTjO.#$<<56TTTTTTTTTTTTTTTTTTTTTTPPPIIIUUUYYTTTTTTTTTTTTTTTTTTTTTTTTTTTTTTTTTTnVVcccczzfvTTTTTTTTTTTTTTTTTTTTTLhhhkASHHUTTTT",
"TTTTTTK+.#$&55a,TTTTTTTTTTTTTTTTTTTTTPLIIIIIUUUYTTTTTTTTTTTTTTTTTTTTTTTTTTTTTTTTTDVcVcczvzzzTTTTTTTTTTTTTTTTTTTTTTSghhhAASKTTTTT",
"TTTTTTTq.=$&<57qTTTTTTTTTTTTTTTTTTTTTTIIIIIUUUUYYTTTTTTTTTTTTTTTTTTTTTTTTTTTTTTTTVVVcccccvzCTTTTTTTTTTTTTTTTTTTTTTkaghkASSPTTTTT",
"TTTTTTTbX.@&<570TTTTTTTTTTTTTTTTTTTTTTTIIIIIUUUYYUTTTTTTTTTTTTTTTTTTTTTTTTTTTTTTMVVVncccxccTTTTTTTTTTTTTTTTTTTTTTS99ahkAASITTTTT",
"TTTTTTTK .@&&579eTTTTTTTTTTTTTTTTTTTTTTIIIIUUUUUYYTTTTTTTTTTTTTTTTTTTTTTTTTTTTTDVVVjcnccccCTTTTTTTTTTTTTTTTTTTTTTA79ahhAAHTTTTTT",
"TTTTTTTTe.#$&<578TTTTTTTTTTTTTTTTTTTTTTTIIIUUUYUUYYTTTTTTTTTTTTTTTTTTTTTTTTTTTTMVVVVVcjVcVTTTTTTTTTTTTTTTTTTTTTTS779ahhkAPTTTTTT",
"TTTTTTTTD.=$&<579qTTTTTTTTTTTTTTTTTTTTTTIPIIUUUYYYYTTTTTTTTTTTTTTTTTTTTTTTTTTTBnVVVVcVcccTTTTTTTTTTTTTTTTTTTTTTTh<59aghkAITTTTTT",
"TTTTTTTTT>=$&<5798TTTTTTTTTTTTTTTTTTTTTTTIIUIUUUYYYYTTTTTTTTTTTTTTTTTTTTTTTTTTMnnVVVjcccMTTTTTTTTTTTTTTTTTTTTTTA<&579ahkKTTTTTTT",
"TTTTTTTTTl.#&&559a6TTTTTTTTTTTTTTTTTTTTTTIIIUUUUYYYYTTTTTTTTTTTTTTTTTTTTTTTTTBVnnVVVnVVVTTTTTTTTTTTTTTTTTTTTTTTs@&<7aahmITTTTTTT",
"TTTTTTTTTI>#&<<599asTTTTTTTTTTTTTTTTTTTTTTUIIUUUYYYYYTTTTTTTTTTTTTTTTTTTTTTTTnnnnnVVVcVBTTTTTTTTTTTTTTTTTTTTTTk;#&<59agSTTTTTTTT",
"TTTTTTTTTTm=$&<579a6TTTTTTTTTTTTTTTTTTTTTTTIIUUUYYYYYYTTTTTTTTTTTTTTTTTTTTTTMnnnnVVVVVCTTTTTTTTTTTTTTTTTTTTTTTq.#&<79ahPTTTTTTTT",
"TTTTTTTTTTI*@&&<79ah0TTTTTTTTTTTTTTTTTTTTTTUUIUUYYYYYYTTTTTTTTTTTTTTTTTTTTTDVnnnnnVVVcDTTTTTTTTTTTTTTTTTTTTTT0OX=$<599STTTTTTTTT",
"TTTTTTTTTTTS#&<<599a9TTTTTTTTTTTTTTTTTTTTTTTIUUUYYYYYYYTTTTTTTTTTTTTTTTTTTTMnnnnnnVVVMTTTTTTTTTTTTTTTTTTTTTTg>O =$&<7aITTTTTTTTT",
"TTTTTTTTTTTT6$&5599ah7TTTTTTTTTTTTTTTTTTTTTTIUUUYYYYYYYTTTTTTTTTTTTTTTTTTTBnnnnnnnVVVTTTTTTTTTTTTTTTTTTTTTTT6+oO.@&<7STTTTTTTTTT",
"TTTTTTTTTTTTS&&<599aahaTTTTTTTTTTTTTTTTTTTTTTIIUYYYYYYYYTTTTTTTTTTTTTTTTTTMVnnnnnnnVMTTTTTTTTTTTTTTTTTTTTTT6:+ooX#&<aUTTTTTTTTTT",
"TTTTTTTTTTTTTk$55799ggggTTTTTTTTTTTTTTTTTTTTTUUUUUYYYYYYYTTTTTTTTTTTTTTTTMnnnnnnnnVCTTTTTTTTTTTTTTTTTTTTTT>w-+oo #$<HTTTTTTTTTTT",
"TTTTTTTTTTTTTL5<5799gghgTTTTTTTTTTTTTTTTTTTTTTUUUUUYYYYYYTTTTTTTTTTTTTTTTnnnnnnnnnnBTTTTTTTTTTTTTTTTTTTTT,w,: +o =$kTTTTTTTTTTTT",
"TTTTTTTTTTTTTTS<<799aghkaTTTTTTTTTTTTTTTTTTTTTTYUUYYYYYYYYTTTTTTTTTTTTTTBVnnnnnnnnCTTTTTTTTTTTTTTTTTTTTTyy1,:2ooO=*PTTTTTTTTTTTT",
"TTTTTTTTTTTTTTTk<799aghhmhTTTTTTTTTTTTTTTTTTTTTYUUYUYYYYYYTTTTTTTTTTTTTBnnnnnnnnnnTTTTTTTTTTTTTTTTTTTTTT1u1,,-+ooXKTTTTTTTTTTTTT",
"TTTTTTTTTTTTTTTIa579aahkkmhTTTTTTTTTTTTTTTTTTTTTUUYUYYYYYYYTTTTTTTTTTTTMnnnnnnnnnBTTTTTTTTTTTTTTTTTTTTTdiww1332OolTTTTTTTTTTTTTT",
"TTTTTTTTTTTTTTTTL7799gghkmkgTTTTTTTTTTTTTTTTTTTTUUUYYYYYYYYTTTTTTTTTTTDnnnnnnnnnnTTTTTTTTTTTTTTTTTTTTTzZuuw1,22OrTTTTTTTTTTTTTTT",
"TTTTTTTTTTTTTTTTTH79agghkkmmhTTTTTTTTTTTTTTTTTTTTUUYYYYYYYYYTTTTTTTTTTnnnnnnnnnVDTTTTTTTTTTTTTTTTTTTTxfppuw1,324LTTTTTTTTTTTTTTT",
"TTTTTTTTTTTTTTTTTTA99aghhmmNANTTTTTTTTTTTTTTTTTTTUUYYYYYYYYYYTTTTTTTTBnnnnnnnnnMTTTTTTTTTTTTTTTTTTTvxxZpiuu1,:3JTTTTTTTTTTTTTTTT",
"TTTTTTTTTTTTTTTTTTTA9aagkkmAASmTTTTTTTTTTTTTTTTTTTYYYYYYYYYYYTTTTTTTTMnnnnnnnnVBTTTTTTTTTTTTTTTTTTvxvfyppiu131JTTTTTTTTTTTTTTTTT",
"TTTTTTTTTTTTTTTTTTTTmaahhkkNAAHASTTTTTTTTTTTTTTTTTTUUYUYYYYYYYTTTTTTSNnnnVnnnnBTTTTTTTTTTTTTTTTTTvVvzffZpiu1uJTTTTTTTTTTTTTTTTTT",
"TTTTTTTTTTTTTTTTTTTTTmahhhmmASAHSSTTTTTTTTTTTTTTTTTYUYYYYYYYYYTTTTTHSNMnnnnnnnTTTTTTTTTTTTTTTTTTVCxczffZpiuuDTTTTTTTTTTTTTTTTTTT",
"TTTTTTTTTTTTTTTTTTTTTTmhhkkmAASSSLSTTTTTTTTTTTTTTTTTYUYYYYYYYYYTTTTHFNmnnnnnnMTTTTTTTTTTTTTTTTBcVczxxxfZppuDTTTTTTTTTTTTTTTTTTTT",
"TTTTTTTTTTTTTTTTTTTTTTTAhhkmAAAHSLKSKTTTTTTTTTTTTTTTYYYYYYYYYYYTTTLFFNmVnnnnVTTTTTTTTTTTTTTTTCMccccxzfffZZJTTTTTTTTTTTTTTTTTTTTT",
"TTTTTTTTTTTTTTTTTTTTTTTTShhAAAASSKSLKSLTTTTTTTTTTTTTTYYYYYYYYYYYTTKKFNMMnnnnDTTTTTTTTTTTTTTDCMVcccczzzfZZKTTTTTTTTTTTTTTTTTTTTTT",
"TTTTTTTTTTTTTTTTTTTTTTTTTHhkAASSKSSLLLKSTTTTTTTTTTTTTTYYYYYYYYYYUPLKFSNnnnnMTTTTTTTTTTTTTDMMnVcjczvczzfxJTTTTTTTTTTTTTTTTTTTTTTT",
"TTTTTTTTTTTTTTTTTTTTTTTTTTLmAASSSSKSKKLPPITTTTTTTTTTTTUYYYYYYYYYUPLKHSNMnnnDTTTTTTTTTTTDCMCnVVVcccczczVPTTTTTTTTTTTTTTTTTTTTTTTT",
"TTTTTTTTTTTTTTTTTTTTTTTTTTTPAAASHHHHKLLLLPLLLTTTTTTTTTYYYYYYYYYYIPLLKFNMnnnTTTTTTTTTTBBMMVVVVcVncccvcGITTTTTTTTTTTTTTTTTTTTTTTTT",
"TTTTTTTTTTTTTTTTTTTTTTTTTTTTIHASSSSKKKLLPPIIILITTTTTTTYYYYYYYYYYUPLKKFNNnnnnTTTTTTTBBMnnVVVVVVcccccvKTTTTTTTTTTTTTTTTTTTTTTTTTTT",
"TTTTTTTTTTTTTTTTTTTTTTTTTTTTTTPHSHHHHKKLLPPIIIIIUITTTYYYYYYYYYYYUIPLFFFNnnnnDTTGBBBMVnnnVVVVVVcVVcBPTTTTTTTTTTTTTTTTTTTTTTTTTTTT",
"TTTTTTTTTTTTTTTTTTTTTTTTTTTTTTTPHSHHKKLLLLPIIIUUUUYYYYYYYYYYYYYYUIIKKFFNMnnnVBBBMnVnVnnnnVVVVVVcCKTTTTTTTTTTTTTTTTTTTTTTTTTTTTTT",
"TTTTTTTTTTTTTTTTTTTTTTTTTTTTTTTTTPHHHKKLLIPIIIIUUUUUYYYYYYYYYYYYUIPPKFFNBMBBMVnnnnnnnnnnnnVVVVcJPTTTTTTTTTTTTTTTTTTTTTTTTTTTTTTT",
"TTTTTTTTTTTTTTTTTTTTTTTTTTTTTTTTTTTPKHLLLLPPPIIUUUUYYYYYYYYYYYYYUIPPPFFFMnnnVVnnnnnnnnnnnnVVVDPTTTTTTTTTTTTTTTTTTTTTTTTTTTTTTTTT",
"TTTTTTTTTTTTTTTTTTTTTTTTTTTTTTTTTTTTIPLKLPPPIIIIUUUUYYYYYYYYYYYYIPPKKFFNNnnnnnnnnnnnnnnnnnnDPTTTTTTTTTTTTTTTTTTTTTTTTTTTTTTTTTTT",
"TTTTTTTTTTTTTTTTTTTTTTTTTTTTTTTTTTTTTTIPLPPPPIIUUUYUYYYYYYYYYYYYIIPKKFFNNnnnnnnnnnnnnnnVnDPTTTTTTTTTTTTTTTTTTTTTTTTTTTTTTTTTTTTT",
"TTTTTTTTTTTTTTTTTTTTTTTTTTTTTTTTTTTTTTTTTPPPIIIUUUUYUUYYYYYYYYYYIIPLLFFSNnnnnnnnVVVVVnBJITTTTTTTTTTTTTTTTTTTTTTTTTTTTTTTTTTTTTTT",
"TTTTTTTTTTTTTTTTTTTTTTTTTTTTTTTTTTTTTTTTTTTIPIIIUIUUYYYYYYYYYYYYUUPLKKFSNnnnnnnnVVVMDKTTTTTTTTTTTTTTTTTTTTTTTTTTTTTTTTTTTTTTTTTT",
"TTTTTTTTTTTTTTTTTTTTTTTTTTTTTTTTTTTTTTTTTTTTTTIIIUUUYUYYYYYYYYYYUIPPLHFFNMnnnnnnBGKITTTTTTTTTTTTTTTTTTTTTTTTTTTTTTTTTTTTTTTTTTTT",
"TTTTTTTTTTTTTTTTTTTTTTTTTTTTTTTTTTTTTTTTTTTTTTTTTTIIUUYUYYYYYYYYUUPLLKFFNNnnBJKPTTTTTTTTTTTTTTTTTTTTTTTTTTTTTTTTTTTTTTTTTTTTTTTT",
"TTTTTTTTTTTTTTTTTTTTTTTTTTTTTTTTTTTTTTTTTTTTTTTTTTTTTTIIUUUYYYYYYUIPPLLLLLIUTTTTTTTTTTTTTTTTTTTTTTTTTTTTTTTTTTTTTTTTTTTTTTTTTTTT",
"TTTTTTTTTTTTTTTTTTTTTTTTTTTTTTTTTTTTTTTTTTTTTTTTTTTTTTTTTTTTTTTTITTTTTTTTTTTTTTTTTTTTTTTTTTTTTTTTTTTTTTTTTTTTTTTTTTTTTTTTTTTTTTT",
"TTTTTTTTTTTTTTTTTTTTTTTTTTTTTTTTTTTTTTTTTTTTTTTTTTTTTTTTTTTTTTTTTTTTTTTTTTTTTTTTTTTTTTTTTTTTTTTTTTTTTTTTTTTTTTTTTTTTTTTTTTTTTTTT",
"TTTTTTTTTTTTTTTTTTTTTTTTTTTTTTTTTTTTTTTTTTTTTTTTTTTTTTTTTTTTTTTTTTTTTTTTTTTTTTTTTTTTTTTTTTTTTTTTTTTTTTTTTTTTTTTTTTTTTTTTTTTTTTTT"
};
