/* XPM */
static char *a2b2b65c199745abd9de4db55ff6d766[] = {
/* columns rows colors chars-per-pixel */
"128 128 32 1 ",
"  c #0D53B4",
". c #0F56B8",
"X c #1056B7",
"o c #1057B8",
"O c #145BBC",
"+ c #175EC0",
"@ c #185FC1",
"# c #1B62C4",
"$ c #1E66C9",
"% c #1F68CA",
"& c #2067CA",
"* c #226ACD",
"= c #266ED1",
"- c #2770D3",
"; c #2972D5",
": c #2D76D9",
"> c #2F78DB",
", c #317BDE",
"< c #347EE1",
"1 c #3681E4",
"2 c #3983E6",
"3 c #3B86E9",
"4 c #3E89EC",
"5 c #418BEE",
"6 c #448EF1",
"7 c #4691F4",
"8 c #4993F6",
"9 c #4D96F9",
"0 c #4F98F9",
"q c #539AF9",
"w c #589BF9",
"e c None",
/* pixels */
"eeeeeeeeeeeeeeeeeeeeeeeeeeeeeeeeeeeeeeeeeeeeeeeeeeeeeeeeeeeeeeeeeeeeeeeeeeeeeeeeeeeeeeeeeeeeeeeeeeeeeeeeeeeeeeeeeeeeeeeeeeeeeeee",
"eeeeeeeeeeeeeeeeeeeeeeeeeeeeeeeeeeeeeeeeeeeeeeeeeeeeeeeeeeeeeeeeeeeeeeeeeeeeeeeeeeeeeeeeeeeeeeeeeeeeeeeeeeeeeeeeeeeeeeeeeeeeeeee",
"eeeeeeeeeeeeeeeeeeeeeeeeeeeeeeeeeeeeeeeeeeeeeeeeeeeeeeeeeeeeeeeeeeeeeeeeeeeeeeeeeeeeeeeeeeeeeeeeeeeeeeeeeeeeeeeeeeeeeeeeeeeeeeee",
"eeeeeeeeeeeeeeeeeeeeeeeeeeeeeeeeeeeeeeeeeeeeeeeeeeeeeeeeeeeeeeeeeeeeeeeeeeeeeeeeeeeeeeeeeeeeeeeeeeeeeeeeeeeeeeeeeeeeeeeeeeeeeeee",
"eeeeeeeeeeeeeeeeeeeeeeeeeeeeeeeeeeeeeeeeeeeeeeeeeeeeeeeeeeeeeeeeeeeeeeeeeeeeeeeeeeeeeeeeeeeeeeeeeeeeeeeeeeeeeeeeeeeeeeeeeeeeeeee",
"eeeeeeeeeeeeeeeeeeeeeeeeeeeeeeeeeeeeeeeeeeeeeeeeeeeeeeeeeeeeeeeeeeeeeeeeeeeeeeeeeeeeeeeeeeeeeeeeeeeeeeeeeeeeeeeeeeeeeeeeeeeeeeee",
"eeeeeeeeeeeeeeeeeeeeeeeeeeeeeeeeeeeeeeeeeeeeeeeeeeeeeeeeeeeeeeeeeeeeeeeeeeeeeeeeeeeeeeeeeeeeeeeeeeeeeeeeeeeeeeeeeeeeeeeeeeeeeeee",
"eeeeeeeeeeeeeeeeeeeeeeeeeeeeeeeeeeeeeeeeeeeeeeeeeeeeeeeeeeeeeeeeeeeeeeeeeeeeeeeeeeeeeeeeeeeeeeeeeeeeeeeeeeeeeeeeeeeeeeeeeeeeeeee",
"eeeeeeeeeeeeeeeeeeeeeeeeeeeeeeeeeeeeeeeeeeeeeeeeeeeeeeeeeeeeeeeeeeeeeeeeeeeeeeeeeeeeeeeeeeeeeeeeeeeeeeeeeeeeeeeeeeeeeeeeeeeeeeee",
"eeeeeeeeeeeeeeeeeeeeeeeeeeeeeeeeeeeeeeeeeeeeeeeeeeeeeeeeeeeeeeeeeeeeeeeeeeeeeeeeeeeeeeeeeeeeeeeeeeeeeeeeeeeeeeeeeeeeeeeeeeeeeeee",
"eeeeeeeeeeeeeeeeeeeeeeeeeeeeeeeeeeeeeeeeeeeeeeeeeeeeeeeeeeeeeeeeeeeeeeeeeeeeeeeeeeeeeeeeeeeeeeeeeeeeeeeeeeeeeeeeeeeeeeeeeeeeeeee",
"eeeeeeeeeeeeeeeeeeeeeeeeeeeeeeeeeeeeeeeeeeeeeeeeeeeeeeeeeeeeeeeeeeeeeeeeeeeeeeeeeeeeeeeeeeeeeeeeeeeeeeeeeeeeeeeeeeeeeeeeeeeeeeee",
"eeeeeeeeeeeeeeeeeeeeeeeeeeeeeeeeeeeeeeeeeeeeeeeeeeeeeeeeeeeeeeeeeeeeeeeeeeeeeeeeeeeeeeeeeeeeeeeeeeeeeeeeeeeeeeeeeeeeeeeeeeeeeeee",
"eeeeeeeeeeeeeeeeeeeeeeeeeeeeeeeeeeeeeeeeeeeeeeeeeeeeeeeeeeeeeeeeeeeeeeeeeeeeeeeeeeeeeeeeeeeeeeeeeeeeeeeeeeeeeeeeeeeeeeeeeeeeeeee",
"eeeeeeeeeeeeeeeeeeeeeeeeeeeeeeeeeeeeeeeeeeeeeeeeeeeeeeeeeeeeeeeeeeeeeeeeeeeeeeeeeeeeeeeeeeeeeeeeeeeeeeeeeeeeeeeeeeeeeeeeeeeeeeee",
"eeeeeeeeeeeeeeeeeeeeeeeeeeeeeeeeeeeeeeeeeeeeeeeeeeeeeeeeeeeeeeeeeeeeeeeeeeeeeeeeeeeeeeeeeeeeeeeeeeeeeeeeeeeeeeeeeeeeeeeeeeeeeeee",
"eeeeeeeeeeeeeeeeeeeeeeeeeeeeeeeeeeeeeeeeeeeeeeeeeeeeeeeeeeeeeeeeeeeeeeeeeeeeeeeeeeeeeeeeeeeeeeeeeeeeeeeeeeeeeeeeeeeeeeeeeeeeeeee",
"eeeeeeeeeeeeweeeeeeeeeeeeeeeeeeeeeeeeeeeeeeeeeeeeeeeeeeeeeeeeeeeeeeeeeeeeeeeeeeeeeeeeeeeeeeeeeeeeeeeeeeeeeeeeeeeeeewweeeeeeeeeee",
"eeeeeeeeewwwwwwweeeeeeeeeeeeeeeeeeeeeeeeeeeeeeeeeeeeeeeeeeeeeeeeeeeeeeeeeeeeeeeeeeeeeeeeeeeeeeeeeeeeeeeeeeeeeeeeeqwwqwqqeeeeeeee",
"eeeeeeewwwwwwwwwwweeeeeeeeeeeeeeeeeeeeeeeeeeeeeeeeeeeeeeeeeeeeeeeeeeeeeeeeeeeeeeeeeeeeeeeeeeeeeeeeeeeeeeeeeeeeeqqqqwwqwqqweeeeee",
"eeeeeewwwwwwwwwwwwweeeeeeeeeeeeeeeeeeeeeeeeeeeeeeeeeeeeeeeeeeeeeeeeeeeeeeeeeeeeeeeeeeeeeeeeeeeeeeeeeeeeeeeeeeewwqwwqwqwqwwqeeeee",
"eeeeewwwwwwwwwwwwwwweeeeeeeeeeeeeeeeeeeeeeeeeeeeeeeeeeeeeeeeeeeeeeeeeeeeeeeeeeeeeeeeeeeeeeeeeeeeeeeeeeeeeeeeeqwqqqwwqwqwwqwqeeee",
"eeeewwwwwwwwwwwwwwwwweeeeeeeeeeeeeeeeeeeeeeeeeeeeeeeeeeeeeeeeeeeeeeeeeeeeeeeeeeeeeeeeeeeeeeeeeeeeeeeeeeeeeeeqqqqwqqqqqqqqqqqeeee",
"eeewwwwwwwwwwwwwwwwwweeeeeeeeeeeeeeeeeeeeeeeeeeeeeeeeeeeeeeeeeeeeeeeeeeeeeeeeeeeeeeeeeeeeeeeeeeeeeeeeeeeeeewqqqqqqqqqqqqqqqqqeee",
"eeewwwwwwqwwqwqwwqwqwweeeeeeeeeeeeeeeeeeeeeeeeeeeeeeeeeeeeeeeeeeeeeeeeeeeeeeeeeeeeeeeeeeeeeeeeeeeeeeeeeeeeeqwqqqqqqqqqqqqqqqqqee",
"eeewwwwqwwwwwwwwwwwwwweeeeeeeeeeeeeeeeeeeeeeeeeeeeeeeeeeeeeeeeeeeeeeeeeeeeeeeeeeeeeeeeeeeeeeeeeeeeeeeeeeeeqqqqqqqq0qqqqqqqqq0qee",
"eewwwwwwwqwwqwwwqwwwwqweeeeeeeeeeeeeeeeeeeeeeeeeeeeeeeeeeeeeeeeeeeeeeeeeeeeeeeeeeeeeeeeeeeeeeeeeeeeeeeeeeqqqqqqqq0qqqqqqqqq0qqee",
"eewwwqwqwwqqwqwqqwqwqwwweeeeeeeeeeeeeeeeeeeeeeeeeeeeeeeeeeeeeeeeeeeeeeeeeeeeeeeeeeeeeeeeeeeeeeeeeeeeeeeeeqq0qqqqqq0qq00qqqqqqqee",
"eewqqwqwqwwwwqqwwwqwwqwweeeeeeeeeeeeeeeeeeeeeeeeeeeeeeeeeeeeeeeeeeeeeeeeeeeeeeeeeeeeeeeeeeeeeeeeeeeeeeeeqqqqqqqq0q0q0q00qq0qq00e",
"eeqwwqwqwqqqqwqqqqqqqqqqweeeeeeeeeeeeeeeeeeeeeeeeeeeeeeeeeeeeeeeeeeeeeeeeeeeeeeeeeeeeeeeeeeeeeeeeeeeeeee000q00000000q00q0000qqqe",
"ewwqqqqwqwwqwwqwqqwqqwqqqeeeeeeeeeeeeeeeeeeeeeeeeeeeeeeeeeeeeeeeeeeeeeeeeeeeeeeeeeeeeeeeeeeeeeeeeeeeeeeq0qq0q0q0000q00000000000e",
"eeqqwwqqqwqqwqqqqqqqqqqqqqeeeeeeeeeeeeeeeeeeeeeeeeeeeeeeeeeeeeeeeeeeeeeeeeeeeeeeeeeeeeeeeeeeeeeeeeeeeeqq0000000000000000000000qe",
"eewqqqqqqqqqqqqqqqqqqqqqqqqeeeeeeeeeeeeeeeeeeeeeeeeeeeeeeeeeeeeeeeeeeeeeeeeeeeeeeeeeeeeeeeeeeeeeeeeeeeqq90000009009099009099999e",
"eeqqqqqqqqqqqqqqqqqqqqqq0qqeeeeeeeeeeeeeeeeeeeeeeeeeeeeeeeeeeeeeeeeeeeeeeeeeeeeeeeeeeeeeeeeeeeeeeeeeeq0q00009999099999999999990e",
"eeqqq0qqqqqqqqqqqqqqqqqqq0qqeeeeeeeeeeeeeeeeeeeeeeeeeeeeeeeeeeeeeeeeeeeeeeeeeeeeeeeeeeeeeeeeeeeeeeeee0009999999999998999999900ee",
"eeeqqqqqqqqqqqqqq0q0qqq0qqqqeeeeeeeeeeeeeeeeeeeeeeeeeeeeeeeeeeeeeeeeeeeeeeeeeeeeeeeeeeeeeeeeeeeeeeee09909990999999999988998980ee",
"eeeqqqqq0qq0qqq00q0qqqq00qq0qeeeeeeeeeeeeeeeeeeeeeeeeeeeeeeeeeeeeeeeeeeeeeeeeeeeeeeeeeeeeeeeeeeeeeee09998080989888989899808888ee",
"eeeeqq0qqq0q000qq0q00q00000q0qeeeeeeeeeeeeeeeeeeeeeeeeeeeeeeeeeeeeeeeeeeeeeeeeeeeeeeeeeeeeeeeeeeeee99888988889888988888888888eee",
"eeeeqqqq00q0q0000q0q0000000000eeeeeeeeeeeeeeeeeeeeeeeeeeeeeeeeeeeeeeeeeeeeeeeeeeeeeeeeeeeeeeeeeeee88989888888888888888888887eeee",
"eeeeeqqq0q0000q000000000000000qeeeeeeeeeeeeeeeeeeeeeeeeeeeeeeeeeeeeeeeeeeeeeeeeeeeeeeeeeeeeeeeeeee88888888888888888787787888eeee",
"eeeeeq0q00000000009000990099090eeeeeeeeeeeeeeeeeeeeeeeeeeeeeeeeeeeeeeeeeeeeeeeeeeeeeeeeeeeeeeeeee88888788787878778877877777eeeee",
"eeeeee0q000009099090099999999998eeeeeeeeeeeeeeeeeeeeeeeeeeeeeeeeeeeeeeeeeeeeeeeeeeeeeeeeeeeeeeeee97878877887787777777777777eeeee",
"eeeeeeeq000099900099999999999999qeeeeeeeeeeeeeeeeeeeeeeeeeeeeeeeeeeeeeeeeeeeeeeeeeeeeeeeeeeeeeee87777777777777687777776677eeeeee",
"eeeeeeeq0000999989909999999899990eeeeeeeeeeeeeeeeeeeeeeeeeeeeeeeeeeeeeeeeeeeeeeeeeeeeeeeeeeeeee77777777777777676676767666eeeeeee",
"eeeeeeee99999999998898897979898898eeeeeeeeeeeeeeeeeeeeeeeeeeeeeeeeeeeeeeeeeeeeeeeeeeeeeeeeeeeee77677776666766666667666666eeeeeee",
"eeeeeeee88898888888989889888888899eeeeeeeeeeeeeeeeeeeeeeeeeeeeeeeeeeeeeeeeeeeeeeeeeeeeeeeeeeee76676666666666666666666666eeeeeeee",
"eeeeeeeee08898988888888888888887788eeeeeeeeeeeeeeeeeeeeeeeeeeeeeeeeeeeeeeeeeeeeeeeeeeeeeeeeeee66666666666666666656566556eeeeeeee",
"eeeeeeeee088888888888888788787888788eeeeeeeeeeeeeeeeeeeeeeeeeeeeeeeeeeeeeeeeeeeeeeeeeeeeeeeee66665656655655565555655555eeeeeeeee",
"eeeeeeeeee98888787887878877777777777eeeeeeeeeeeeeeeeeeeeeeeeeeeeeeeeeeeeeeeeeeeeeeeeeeeeeeee56566555555555555555555555eeeeeeeeee",
"eeeeeeeeeee88888687777867787777777777eeeeeeeeeeeeeeeeeeeeeeeeeeeeeeeeeeeeeeeeeeeeeeeeeeeeeee56555555555553555355444444eeeeeeeeee",
"eeeeeeeeeee86866686877677777777677667eeeeeeeeeeeeeeeeeeeeeeeeeeeeeeeeeeeeeeeeeeeeeeeeeeeeee55545555544545555554444444eeeeeeeeeee",
"eeeeeeeeeeee68688667776666667757666766eeeeeeeeeeeeeeeeeeeeeeeeeeeeeeeeeeeeeeeeeeeeeeeeeeeee44544544444443335335334444eeeeeeeeeee",
"eeeeeeeeeeee767676666676666666676666666eeeeeeeeeeeeeeeeeeeeeeeeeeeeeeeeeeeeeeeeeeeeeeeeeee44444444443444353333533334eeeeeeeeeeee",
"eeeeeeeeeeeee66666666566666665656556656eeeeeeeeeeeeeeeeeeeeeeeeeeeeeeeeeeeeeeeeeeeeeeeeee443433433333333333333333333eeeeeeeeeeee",
"eeeeeeeeeeeeee66666656566565655555656555eeeeeeeeeeeeeeeeeeeeeeeeeeeeeeeeeeeeeeeeeeeeeeeee34433333333333333333332332eeeeeeeeeeeee",
"eeeeeeeeeeeeee56555565555555555554554454eeeeeeeeeeeeeeeeeeeeeeeeeeeeeeeeeeeeeeeeeeeeeeee33323333333332232323322222eeeeeeeeeeeeee",
"eeeeeeeeeeeeeee65555645555554555454445354eeeeeeeeeeeeeeeeeeeeeeeeeeeeeeeeeeeeeeeeeeeeeee23332232222322312222222222eeeeeeeeeeeeee",
"eeeeeeeeeeeeeee755544444544444444444555343eeeeeeeeeeeeeeeeeeeeeeeeeeeeeeeeeeeeeeeeeeeee22222222222221221122112121eeeeeeeeeeeeeee",
"eeeeeeeeeeeeeeee44444444444444444444433343eeeeeeeeeeeeeeeeeeeeeeeeeeeeeeeeeeeeeeeeeeee222222222212111111112112111eeeeeeeeeeeeeee",
"eeeeeeeeeeeeeeeee44443444434433333343333344eeeeeeeeeeeeeeeeeeeeeeeeeeeeeeeeeeeeeeeeeee2112<211111111111111<1<<<<eeeeeeeeeeeeeeee",
"eeeeeeeeeeeeeeeee44433333333333333332333333eeeeeeeeeeeeeeeeeeeeeeeeeeeeeeeeeeeeeeeeee111<<2<11<111<1<1<<<<<<<<<eeeeeeeeeeeeeeeee",
"eeeeeeeeeeeeeeeeee24333333333333233222322213eeeeeeeeeeeeeeeeeeeeeeeeeeeeeeeeeeeeeeeee1<2<2<<1<<<<<<1<<<<<<<<<,<eeeeeeeeeeeeeeeee",
"eeeeeeeeeeeeeeeeee33233333222222222222222222eeeeeeeeeeeeeeeeeeeeeeeeeeeeeeeeeeeeeeee<1<<<<<<<<<<<,<,<<,<,<<,<,eeeeeeeeeeeeeeeeee",
"eeeeeeeeeeeeeeeeeee22222222222222222222212111eeeeeeeeeeeeeeeeeeeeeeeeeeeeeeeeeeeeee<<,,<,<<<<,<<,,<,,,,,<,,,,,eeeeeeeeeeeeeeeeee",
"eeeeeeeeeeeeeeeeeeee2222122231111221111<21<221eeeeeeeeeeeeeeeeeeeeeeeeeeeeeeeeeeeee1,,,,1,,,,,,,,,<,>,,,,,>,,eeeeeeeeeeeeeeeeeee",
"eeeeeeeeeeeeeeeeeeee1111111111111<111111<1<1<<eeeeeeeeeeeeeeeeeeeeeeeeeeeeeeeeeeee,,,,,,,,,,,>,,,,>>>,,>>,>>eeeeeeeeeeeeeeeeeeee",
"eeeeeeeeeeeeeeeeeeeee111111<11<<<<<<<<11<<<<<<<eeeeeeeeeeeeeeeeeeeeeeeeeeeeeeeeeee,,,,,>>>,>>>>>>>>>:,>>>>>:eeeeeeeeeeeeeeeeeeee",
"eeeeeeeeeeeeeeeeeeeee<<<1<<<<<<<<<<<<<<<<<,<<,<eeeeeeeeeeeeeeeeeeeeeeeeeeeeeeeeee>>>,>>>>>>>>>>>>>>:::>:>::eeeeeeeeeeeeeeeeeeeee",
"eeeeeeeeeeeeeeeeeeeeee<<<<<,<<,<<,<<,,<,,,,<,,,,eeeeeeeeeeeeeeeeeeeeeeeeeeeeeeee>>>>>>>>>>>:>:>::::::::::::eeeeeeeeeeeeeeeeeeeee",
"eeeeeeeeeeeeeeeeeeeeeee<<,<<,<<,,<,,,,,,,,,,,,,,,eeeeeeeeeeeeeeeeeeeeeeeeeeeeeee>>;>::>;:::::::::;::::::::eeeeeeeeeeeeeeeeeeeeee",
"eeeeeeeeeeeeeeeeeeeeeee,,,,,,,,,,,,,,,,,,,,,,,>,>eeeeeeeeeeeeeeeeeeeeeeeeeeeeee:>;>:;:::;;>:;:;::;:;:;;;;;eeeeeeeeeeeeeeeeeeeeee",
"eeeeeeeeeeeeeeeeeeeeeeee,,,,,>,,,,>,>>>>>>>>:,:>>>eeeeeeeeeeeeeeeeeeeeeeeeeeeee::;;;:;;;;>;;;;;;;;;;;;;;;eeeeeeeeeeeeeeeeeeeeeee",
"eeeeeeeeeeeeeeeeeeeeeeee>,>>>>>>::,>:>>::>::>:::>:eeeeeeeeeeeeeeeeeeeeeeeeeeee:;;;;;;;;;;;;-;;;;;;;-;;-;eeeeeeeeeeeeeeeeeeeeeeee",
"eeeeeeeeeeeeeeeeeeeeeeeee>>:>>>:>::::>:::::::::::::eeeeeeeeeeeeeeeeeeeeeeeeee;;;;;;;;;;;;;;--;----------eeeeeeeeeeeeeeeeeeeeeeee",
"eeeeeeeeeeeeeeeeeeeeeeeeee::::::::::::::::;:::;:;:;:eeeeeeeeeeeeeeeeeeeeeeeee;;;;---;--;-------==----=-eeeeeeeeeeeeeeeeeeeeeeeee",
"eeeeeeeeeeeeeeeeeeeeeeeeee::::;::::;;:;:;:;::;:;;;;;eeeeeeeeeeeeeeeeeeeeeeee-------=-------=--=========eeeeeeeeeeeeeeeeeeeeeeeee",
"eeeeeeeeeeeeeeeeeeeeeeeeeee:;:;:;:;;;;;;;:;;;;;;;;;-;eeeeeeeeeeeeeeeeeeeeeee----=====================*eeeeeeeeeeeeeeeeeeeeeeeeee",
"eeeeeeeeeeeeeeeeeeeeeeeeeee;;;;;;;;;;;;;-;-;;----;---eeeeeeeeeeeeeeeeeeeeee=-=-*=========*=**=*=*=*==eeeeeeeeeeeeeeeeeeeeeeeeeee",
"eeeeeeeeeeeeeeeeeeeeeeeeeeee;;;-;;=;=;;;=----------=--eeeeeeeeeeeeeeeeeeee-**=*=*===*==**=***==******eeeeeeeeeeeeeeeeeeeeeeeeeee",
"eeeeeeeeeeeeeeeeeeeeeeeeeeee;;=--=;--;==------=---===--eeeeeeeeeeeeeeeeeee*-*=**=******=******&*****eeeeeeeeeeeeeeeeeeeeeeeeeeee",
"eeeeeeeeeeeeeeeeeeeeeeeeeeeee---=-=--==-=============*=eeeeeeeeeeeeeeeeee**=************=&***&&&*&*&eeeeeeeeeeeeeeeeeeeeeeeeeeee",
"eeeeeeeeeeeeeeeeeeeeeeeeeeeeee-=======*======*=**=*=*=*=eeeeeeeeeeeeeeeee****&*****&&**&&&&&&%%%&&$eeeeeeeeeeeeeeeeeeeeeeeeeeeee",
"eeeeeeeeeeeeeeeeeeeeeeeeeeeeee====-**==**==*=****=******eeeeeeeeeeeeeeee**&&&*&&%%&&%%%%&&$$%%%$%%eeeeeeeeeeeeeeeeeeeeeeeeeeeeee",
"eeeeeeeeeeeeeeeeeeeeeeeeeeeeeee=*=**=**=**&=**********&**eeeeeeeeeeeeee&&&&%&*%%%%%%$%%%$$$$%%$$$$eeeeeeeeeeeeeeeeeeeeeeeeeeeeee",
"eeeeeeeeeeeeeeeeeeeeeeeeeeeeeee************&***%&&***&&&&&eeeeeeeeeeeee&%$$$%%%%$%$$$$$#$$#$$##$$eeeeeeeeeeeeeeeeeeeeeeeeeeeeeee",
"eeeeeeeeeeeeeeeeeeeeeeeeeeeeeeee&*****&&&*&&%%*%%%%&&&&%%&eeeeeeeeeeee$&$%$$#$$%#$#$#$#$$#$##$#$#eeeeeeeeeeeeeeeeeeeeeeeeeeeeeee",
"eeeeeeeeeeeeeeeeeeeeeeeeeeeeeeeee&&&%%%%*%%&%%%%$$$$&%$%%$$eeeeeeeeeee$$$##%$$###$$#$#$##$######eeeeeeeeeeeeeeeeeeeeeeeeeeeeeeee",
"eeeeeeeeeeeeeeeeeeeeeeeeeeeeeeeee&&&%%%%$%$%$$$$$$$$%%$$%$#eeeeeeeeee$###%#################$###eeeeeeeeeeeeeeeeeeeeeeeeeeeeeeeee",
"eeeeeeeeeeeeeeeeeeeeeeeeeeeeeeeeee$$$$$$$$%$#$$#$$#$$#$##$#$eeeeeeee##################@####+##+eeeeeeeeeeeeeeeeeeeeeeeeeeeeeeeee",
"eeeeeeeeeeeeeeeeeeeeeeeeeeeeeeeeee#$#$#$$##$$##$##$#$####$##&eeeeeee##########+##@#@###@#+#@+#eeeeeeeeeeeeeeeeeeeeeeeeeeeeeeeeee",
"eeeeeeeeeeeeeeeeeeeeeeeeeeeeeeeeeee$#####$#$###########@@$###eeeeee#@####@#@###@#@@@@@@@#@++++eeeeeeeeeeeeeeeeeeeeeeeeeeeeeeeeee",
"eeeeeeeeeeeeeeeeeeeeeeeeeeeeeeeeeeee$###################@@@##@eeee#@#++#@#@@@@+@@@@@+@@@++++#eeeeeeeeeeeeeeeeeeeeeeeeeeeeeeeeeee",
"eeeeeeeeeeeeeeeeeeeeeeeeeeeeeeeeeeee##########@#######@#@@#@@@@ee#@@@@@++@#@@+@+@+@+++@+++++Oeeeeeeeeeeeeeeeeeeeeeeeeeeeeeeeeeee",
"eeeeeeeeeeeeeeeeeeeeeeeeeeeeeeeeeeeee###+#+#@#@@#OO#@@@#@@@@@+@@#O@@O@++++O++++@@O+@+O+OO++Oeeeeeeeeeeeeeeeeeeeeeeeeeeeeeeeeeeee",
"eeeeeeeeeeeeeeeeeeeeeeeeeeeeeeeeeeeee#@#@@@#@@@@##O#O##O@@O@O@++O+++@++@O+O+O@+OOO+OO+O+OO+eeeeeeeeeeeeeeeeeeeeeeeeeeeeeeeeeeeee",
"eeeeeeeeeeeeeeeeeeeeeeeeeeeeeeeeeeeeee+++@@@@@O@OO#+@OO#O@O@+O+++O+O+OOO+O+OOOOOO+OOOOOOOOOeeeeeeeeeeeeeeeeeeeeeeeeeeeeeeeeeeeee",
"eeeeeeeeeeeeeeeeeeeeeeeeeeeeeeeeeeeeeee@+++O+++@+O#OO++OO+OO+OO+O+OOOOOOOOOOOOOOOOOOOoOOOOeeeeeeeeeeeeeeeeeeeeeeeeeeeeeeeeeeeeee",
"eeeeeeeeeeeeeeeeeeeeeeeeeeeeeeeeeeeeeeeO++++O+OOO+OO+OO+++O+OOOOOOOOOOOOOOOOOOOOOOOOOOOOOOeeeeeeeeeeeeeeeeeeeeeeeeeeeeeeeeeeeeee",
"eeeeeeeeeeeeeeeeeeeeeeeeeeeeeeeeeeeeeeeeO+OOOOOOOOO+OOOO+oOOOOOOOOOOOOOOOOOOOOOooOOooOoOoeeeeeeeeeeeeeeeeeeeeeeeeeeeeeeeeeeeeeee",
"eeeeeeeeeeeeeeeeeeeeeeeeeeeeeeeeeeeeeeeeOOOOOOOOOOOOOOOOoOOOOoOOOOOoOOoOOooOoooOoXXOoooOeeeeeeeeeeeeeeeeeeeeeeeeeeeeeeeeeeeeeeee",
"eeeeeeeeeeeeeeeeeeeeeeeeeeeeeeeeeeeeeeeeeOOOOoOOoOOOOOOooOOO+ooooOoOoOoOoOooooOooOXoooooeeeeeeeeeeeeeeeeeeeeeeeeeeeeeeeeeeeeeeee",
"eeeeeeeeeeeeeeeeeeeeeeeeeeeeeeeeeeeeeeeeeeOOoOoOOOooOooOOoXoXX+oooooooooooooooooooXoXXoeeeeeeeeeeeeeeeeeeeeeeeeeeeeeeeeeeeeeeeee",
"eeeeeeeeeeeeeeeeeeeeeeeeeeeeeeeeeeeeeeeeeeOOOOoooooOOoOXoOooooo.oooooooXoooooXXXo ooXXXeeeeeeeeeeeeeeeeeeeeeeeeeeeeeeeeeeeeeeeee",
"eeeeeeeeeeeeeeeeeeeeeeeeeeeeeeeeeeeeeeeeeeeoXooOOoooXoooooo.ooXXoooo..oXoXooo ..oXXXXXeeeeeeeeeeeeeeeeeeeeeeeeeeeeeeeeeeeeeeeeee",
"eeeeeeeeeeeeeeeeeeeeeeeeeeeeeeeeeeeeeeeeeeeooooooooXoooXXoooXXXXo XXXoX        . XX  eeeeeeeeeeeeeeeeeeeeeeeeeeeeeeeeeeeeeeeeeee",
"eeeeeeeeeeeeeeeeeeeeeeeeeeeeeeeeeeeeeeeeeeeeoXXXXoXX .X.. ..XXXX.o.X X X    ....X  o eeeeeeeeeeeeeeeeeeeeeeeeeeeeeeeeeeeeeeeeeee",
"eeeeeeeeeeeeeeeeeeeeeeeeeeeeeeeeeeeeeeeeeeeeeXXX o X.... X X X   o  .  X            eeeeeeeeeeeeeeeeeeeeeeeeeeeeeeeeeeeeeeeeeeee",
"eeeeeeeeeeeeeeeeeeeeeeeeeeeeeeeeeeeeeeeeeeeeeXXXXo   .    X X X    X                eeeeeeeeeeeeeeeeeeeeeeeeeeeeeeeeeeeeeeeeeeee",
"eeeeeeeeeeeeeeeeeeeeeeeeeeeeeeeeeeeeeeeeeeeeeeX   .     X                          eeeeeeeeeeeeeeeeeeeeeeeeeeeeeeeeeeeeeeeeeeeee",
"eeeeeeeeeeeeeeeeeeeeeeeeeeeeeeeeeeeeeeeeeeeeee       .                            eeeeeeeeeeeeeeeeeeeeeeeeeeeeeeeeeeeeeeeeeeeeee",
"eeeeeeeeeeeeeeeeeeeeeeeeeeeeeeeeeeeeeeeeeeeeeee                                  eeeeeeeeeeeeeeeeeeeeeeeeeeeeeeeeeeeeeeeeeeeeeee",
"eeeeeeeeeeeeeeeeeeeeeeeeeeeeeeeeeeeeeeeeeeeeeeee                                 eeeeeeeeeeeeeeeeeeeeeeeeeeeeeeeeeeeeeeeeeeeeeee",
"eeeeeeeeeeeeeeeeeeeeeeeeeeeeeeeeeeeeeeeeeeeeeeeee                               eeeeeeeeeeeeeeeeeeeeeeeeeeeeeeeeeeeeeeeeeeeeeeee",
"eeeeeeeeeeeeeeeeeeeeeeeeeeeeeeeeeeeeeeeeeeeeeeeeee                             eeeeeeeeeeeeeeeeeeeeeeeeeeeeeeeeeeeeeeeeeeeeeeeee",
"eeeeeeeeeeeeeeeeeeeeeeeeeeeeeeeeeeeeeeeeeeeeeeeeeee                          eeeeeeeeeeeeeeeeeeeeeeeeeeeeeeeeeeeeeeeeeeeeeeeeeee",
"eeeeeeeeeeeeeeeeeeeeeeeeeeeeeeeeeeeeeeeeeeeeeeeeeeeee                       eeeeeeeeeeeeeeeeeeeeeeeeeeeeeeeeeeeeeeeeeeeeeeeeeeee",
"eeeeeeeeeeeeeeeeeeeeeeeeeeeeeeeeeeeeeeeeeeeeeeeeeeeeee                    eeeeeeeeeeeeeeeeeeeeeeeeeeeeeeeeeeeeeeeeeeeeeeeeeeeeee",
"eeeeeeeeeeeeeeeeeeeeeeeeeeeeeeeeeeeeeeeeeeeeeeeeeeeeeeeee               eeeeeeeeeeeeeeeeeeeeeeeeeeeeeeeeeeeeeeeeeeeeeeeeeeeeeeee",
"eeeeeeeeeeeeeeeeeeeeeeeeeeeeeeeeeeeeeeeeeeeeeeeeeeeeeeeeeee          eeeeeeeeeeeeeeeeeeeeeeeeeeeeeeeeeeeeeeeeeeeeeeeeeeeeeeeeeee",
"eeeeeeeeeeeeeeeeeeeeeeeeeeeeeeeeeeeeeeeeeeeeeeeeeeeeeeeeeeeeeeeeeeeeeeeeeeeeeeeeeeeeeeeeeeeeeeeeeeeeeeeeeeeeeeeeeeeeeeeeeeeeeeee",
"eeeeeeeeeeeeeeeeeeeeeeeeeeeeeeeeeeeeeeeeeeeeeeeeeeeeeeeeeeeeeeeeeeeeeeeeeeeeeeeeeeeeeeeeeeeeeeeeeeeeeeeeeeeeeeeeeeeeeeeeeeeeeeee",
"eeeeeeeeeeeeeeeeeeeeeeeeeeeeeeeeeeeeeeeeeeeeeeeeeeeeeeeeeeeeeeeeeeeeeeeeeeeeeeeeeeeeeeeeeeeeeeeeeeeeeeeeeeeeeeeeeeeeeeeeeeeeeeee",
"eeeeeeeeeeeeeeeeeeeeeeeeeeeeeeeeeeeeeeeeeeeeeeeeeeeeeeeeeeeeeeeeeeeeeeeeeeeeeeeeeeeeeeeeeeeeeeeeeeeeeeeeeeeeeeeeeeeeeeeeeeeeeeee",
"eeeeeeeeeeeeeeeeeeeeeeeeeeeeeeeeeeeeeeeeeeeeeeeeeeeeeeeeeeeeeeeeeeeeeeeeeeeeeeeeeeeeeeeeeeeeeeeeeeeeeeeeeeeeeeeeeeeeeeeeeeeeeeee",
"eeeeeeeeeeeeeeeeeeeeeeeeeeeeeeeeeeeeeeeeeeeeeeeeeeeeeeeeeeeeeeeeeeeeeeeeeeeeeeeeeeeeeeeeeeeeeeeeeeeeeeeeeeeeeeeeeeeeeeeeeeeeeeee",
"eeeeeeeeeeeeeeeeeeeeeeeeeeeeeeeeeeeeeeeeeeeeeeeeeeeeeeeeeeeeeeeeeeeeeeeeeeeeeeeeeeeeeeeeeeeeeeeeeeeeeeeeeeeeeeeeeeeeeeeeeeeeeeee",
"eeeeeeeeeeeeeeeeeeeeeeeeeeeeeeeeeeeeeeeeeeeeeeeeeeeeeeeeeeeeeeeeeeeeeeeeeeeeeeeeeeeeeeeeeeeeeeeeeeeeeeeeeeeeeeeeeeeeeeeeeeeeeeee",
"eeeeeeeeeeeeeeeeeeeeeeeeeeeeeeeeeeeeeeeeeeeeeeeeeeeeeeeeeeeeeeeeeeeeeeeeeeeeeeeeeeeeeeeeeeeeeeeeeeeeeeeeeeeeeeeeeeeeeeeeeeeeeeee"
};
